<svg class="animated" id="freepik_stories-children-preparing-their-backpack" xmlns="http://www.w3.org/2000/svg" viewBox="0 0 500 500" version="1.1" xmlns:xlink="http://www.w3.org/1999/xlink" xmlns:svgjs="http://svgjs.com/svgjs"><style>svg#freepik_stories-children-preparing-their-backpack:not(.animated) .animable {opacity: 0;}svg#freepik_stories-children-preparing-their-backpack.animated #freepik--character-2--inject-84 {animation: 1.5s Infinite  linear floating;animation-delay: 0s;}svg#freepik_stories-children-preparing-their-backpack.animated #freepik--character-1--inject-84 {animation: 1.5s Infinite  linear floating;animation-delay: 0s;}            @keyframes floating {                0% {                    opacity: 1;                    transform: translateY(0px);                }                50% {                    transform: translateY(-10px);                }                100% {                    opacity: 1;                    transform: translateY(0px);                }            }        </style><g id="freepik--background-simple--inject-84" class="animable" style="transform-origin: 251.579px 253.721px;"><path d="M327.83,51.06S248.49,19.89,172.61,63.88,60.28,198.38,28.83,270.82,18.63,418.43,78.41,454.1s98.47-13.38,181-13.52,105.06,12.73,172.29-33.76,76.55-160.45,20.22-246.54S327.83,51.06,327.83,51.06Z" style="fill: rgb(33, 241, 90); transform-origin: 251.579px 253.721px;" id="elagxbmwq7oy" class="animable"></path><g id="ela6jqxpa6eww"><path d="M327.83,51.06S248.49,19.89,172.61,63.88,60.28,198.38,28.83,270.82,18.63,418.43,78.41,454.1s98.47-13.38,181-13.52,105.06,12.73,172.29-33.76,76.55-160.45,20.22-246.54S327.83,51.06,327.83,51.06Z" style="fill: rgb(255, 255, 255); opacity: 0.7; transform-origin: 251.579px 253.721px;" class="animable"></path></g></g><g id="freepik--Window--inject-84" class="animable" style="transform-origin: 188.28px 176.385px;"><path d="M124.21,73.66V279.11H252.35V73.66Zm66.86,5h56.6V124h-56.6Zm0,50.36h56.6v44.9h-56.6Zm0,49.88h56.6v45.85h-56.6Zm-4.68,95.25h-57.5V229.71h57.5Zm0-49.4h-57.5V178.88h57.5Zm0-50.83h-57.5V129h57.5Zm0-49.88h-57.5V78.64h57.5Zm4.68,150.11V229.71h56.6v44.42Z" style="fill: none; stroke: rgb(38, 50, 56); stroke-miterlimit: 10; transform-origin: 188.28px 176.385px;" id="ell2868nu1kn" class="animable"></path></g><g id="freepik--Plants--inject-84" class="animable" style="transform-origin: 396.755px 99.945px;"><path d="M423,100.51s.15-4.19-3.42-10.55a57.56,57.56,0,0,0-8.38-11.18s2.18,0,5.74,3.57a39.68,39.68,0,0,1,5.59,7s.31-4.34-4.34-12-8.54-12.72-8.54-12.72,8.23,3.88,12.11,10.08a57.64,57.64,0,0,1,5,9.16V72.57c0-4.81.47-11.79.47-11.79a48.64,48.64,0,0,1,2.48,12.41c.47,7,.62,12.73.62,12.73a63,63,0,0,1,1.87-12.73,82.27,82.27,0,0,1,5-13.19s.47,11.33-.77,17.69-2.8,11.8-2.8,11.8A21.14,21.14,0,0,1,437,83.13a33.33,33.33,0,0,1,6-6.37s-5.43,10.87-6,14.9a85.64,85.64,0,0,0-.78,8.54" style="fill: rgb(33, 241, 90); transform-origin: 426.325px 80.255px;" id="elzzq6mm7imv" class="animable"></path><path d="M399,112.62s-3.41-4.35-3.41-7,2.63,1.24,2.63,1.24-5.58-10.24-5.12-14.43,4.66,7.29,4.66,7.29-1.4-23.59.93-22.81,5.28,23,5.28,24.37,2-9.78,3.57-6.52,1.55,11,1.55,11,2-11.8,3.57-7.76-1.86,14.74-1.86,14.74" style="fill: rgb(33, 241, 90); transform-origin: 403.072px 94.8155px;" id="el9hmlzznty85" class="animable"></path><path d="M357.35,113.08s1.4-2.64-1.39-6.67a72,72,0,0,0-6.21-7.61s5.9,2.18,7.6,4,3.26,4.19,3.11,3.72-2.48-4.81-5-9.78S350.68,87,350.68,87a75.35,75.35,0,0,0,7,7.91,34.87,34.87,0,0,1,6.06,8.07S362,94,362,90s.78-10.87.78-10.87,2.79,6.83,3.41,11.8.78,10.55.78,10.55.31-1.55,1.55-6.83a114.19,114.19,0,0,1,4-12.42s.32,5.9.16,11.8-2.64,12.88-2.64,12.88,2.33-2.64,4.19-5.12a38.89,38.89,0,0,0,2.64-3.88s-4,9.62-4.5,10.71-1.4,4.66-1.4,4.66Z" style="fill: rgb(33, 241, 90); transform-origin: 363.31px 96.205px;" id="el01shysgymc0f" class="animable"></path><rect x="349.43" y="132.25" width="94.65" height="7.64" style="fill: none; stroke: rgb(38, 50, 56); stroke-linecap: round; stroke-linejoin: round; transform-origin: 396.755px 136.07px;" id="eldtmwu2qcjxs" class="animable"></rect><rect x="355.72" y="113.03" width="16.51" height="5.57" style="fill: none; stroke: rgb(38, 50, 56); stroke-linecap: round; stroke-linejoin: round; transform-origin: 363.975px 115.815px;" id="eldv5cmbpxq4l" class="animable"></rect><polygon points="370.23 132.19 357.72 132.19 351.46 118.63 376.49 118.63 370.23 132.19" style="fill: none; stroke: rgb(38, 50, 56); stroke-linecap: round; stroke-linejoin: round; transform-origin: 363.975px 125.41px;" id="el7erdkloshy" class="animable"></polygon><rect x="379.98" y="97.44" width="9.76" height="34.8" style="fill: none; stroke: rgb(38, 50, 56); stroke-linecap: round; stroke-linejoin: round; transform-origin: 384.86px 114.84px;" id="elluoohbdr2o" class="animable"></rect><polyline points="414.82 122.93 414.82 132.24 395.72 132.24 395.72 122.13" style="fill: none; stroke: rgb(38, 50, 56); stroke-linecap: round; stroke-linejoin: round; transform-origin: 405.27px 127.185px;" id="elo82547k3j7s" class="animable"></polyline><path d="M414.79,121.64v-8.92h-19.1v10.21a2.28,2.28,0,0,0,2.29,2.29h.11a2.28,2.28,0,0,0,2.29-2.29v-1.29h.12v1.29a2.29,2.29,0,0,0,2.29,2.29h.12a2.29,2.29,0,0,0,2.29-2.29v-1.29h.12v1.29a2.28,2.28,0,0,0,2.29,2.29h.11a2.28,2.28,0,0,0,2.29-2.29v-1.29h.12v1.29a2.29,2.29,0,0,0,2.29,2.29h.12a2.29,2.29,0,0,0,2.29-2.29v-1.29Z" style="fill: none; stroke: rgb(38, 50, 56); stroke-linecap: round; stroke-linejoin: round; transform-origin: 405.26px 118.97px;" id="eley7gzi7vgwi" class="animable"></path><rect x="419.32" y="99.99" width="18.39" height="25.14" style="fill: none; stroke: rgb(38, 50, 56); stroke-linecap: round; stroke-linejoin: round; transform-origin: 428.515px 112.56px;" id="elwfm1yhnkffk" class="animable"></rect><rect x="421.11" y="125.23" width="14.8" height="7.03" style="fill: none; stroke: rgb(38, 50, 56); stroke-linecap: round; stroke-linejoin: round; transform-origin: 428.51px 128.745px;" id="ell4y146norf9" class="animable"></rect><path d="M381.14,86.66a4.11,4.11,0,1,0,4.11,4.11A4.11,4.11,0,0,0,381.14,86.66Zm0,5.82a1.71,1.71,0,1,1,1.71-1.71A1.72,1.72,0,0,1,381.14,92.48Z" style="fill: rgb(33, 241, 90); transform-origin: 381.14px 90.77px;" id="elon55qjphp8" class="animable"></path><path d="M385.23,83.59a3.09,3.09,0,1,0,3.09,3.09A3.08,3.08,0,0,0,385.23,83.59Zm0,4.37a1.28,1.28,0,1,1,0-2.56,1.28,1.28,0,0,1,0,2.56Z" style="fill: rgb(33, 241, 90); transform-origin: 385.23px 86.68px;" id="elqxniob2qw8" class="animable"></path><path d="M387.72,89.49a3.09,3.09,0,1,0,3.08,3.08A3.08,3.08,0,0,0,387.72,89.49Zm0,4.37A1.29,1.29,0,1,1,389,92.57,1.28,1.28,0,0,1,387.72,93.86Z" style="fill: rgb(33, 241, 90); transform-origin: 387.71px 92.58px;" id="eljlgt2fy5zpb" class="animable"></path><path d="M384.3,92.75a3.09,3.09,0,1,0,3.09,3.08A3.08,3.08,0,0,0,384.3,92.75Zm0,4.36a1.28,1.28,0,1,1,1.28-1.28A1.28,1.28,0,0,1,384.3,97.11Z" style="fill: rgb(33, 241, 90); transform-origin: 384.3px 95.84px;" id="elod4xe704xy" class="animable"></path><path d="M385.23,75.06a3.08,3.08,0,1,0,3.09,3.08A3.08,3.08,0,0,0,385.23,75.06Zm0,4.36a1.28,1.28,0,1,1,1.28-1.28A1.28,1.28,0,0,1,385.23,79.42Z" style="fill: rgb(33, 241, 90); transform-origin: 385.24px 78.14px;" id="el76uosdzu4f8" class="animable"></path><path d="M383.84,79.09a3.09,3.09,0,1,0,3.08,3.09A3.09,3.09,0,0,0,383.84,79.09Zm0,4.37a1.28,1.28,0,1,1,1.28-1.28A1.28,1.28,0,0,1,383.84,83.46Z" style="fill: rgb(33, 241, 90); transform-origin: 383.83px 82.18px;" id="elwx9qmu904jd" class="animable"></path><path d="M379.65,77.85a3.09,3.09,0,1,0,3.08,3.08A3.08,3.08,0,0,0,379.65,77.85Zm0,4.36a1.28,1.28,0,1,1,0-2.56,1.28,1.28,0,0,1,0,2.56Z" style="fill: rgb(33, 241, 90); transform-origin: 379.64px 80.94px;" id="elm7vrnzmd31j" class="animable"></path><path d="M389.11,79.56a3.09,3.09,0,1,0,3.09,3.08A3.08,3.08,0,0,0,389.11,79.56Zm0,4.36a1.28,1.28,0,1,1,1.28-1.28A1.28,1.28,0,0,1,389.11,83.92Z" style="fill: rgb(33, 241, 90); transform-origin: 389.11px 82.65px;" id="elphvxgafuryl" class="animable"></path></g><g id="freepik--Armchair--inject-84" class="animable" style="transform-origin: 333.593px 320.715px;"><path d="M402.23,242H419.6a19.65,19.65,0,0,1,19.65,19.65v45" style="fill: none; stroke: rgb(38, 50, 56); stroke-miterlimit: 10; transform-origin: 420.74px 274.325px;" id="elxegc7sadjb" class="animable"></path><path d="M271,306.68C261.17,308,252.17,305,242.17,308c-7,2-13,9-13,16-2,24-1,51.13-.86,75.43" style="fill: none; stroke: rgb(38, 50, 56); stroke-miterlimit: 10; transform-origin: 249.468px 353.021px;" id="el512jklncjmd" class="animable"></path><line x1="308.42" y1="306.68" x2="303.35" y2="306.68" style="fill: none; stroke: rgb(38, 50, 56); stroke-miterlimit: 10; transform-origin: 305.885px 306.68px;" id="eljk3nnqnez6h" class="animable"></line><polyline points="308 353.01 308 306.68 303.35 306.68" style="fill: none; stroke: rgb(38, 50, 56); stroke-miterlimit: 10; transform-origin: 305.675px 329.845px;" id="el9ruevxid22p" class="animable"></polyline><path d="M271,306.68C260.17,307,251.17,317,250.17,327c-1,23,0,48.71.39,72" style="fill: none; stroke: rgb(38, 50, 56); stroke-miterlimit: 10; transform-origin: 260.369px 352.84px;" id="elwq1871mm01e" class="animable"></path><line x1="270.98" y1="306.68" x2="307.98" y2="306.68" style="fill: none; stroke: rgb(38, 50, 56); stroke-miterlimit: 10; transform-origin: 289.48px 306.68px;" id="el6s8zckgrav7" class="animable"></line><path d="M402.23,242a19.64,19.64,0,0,1,19.64,19.65v45" style="fill: none; stroke: rgb(38, 50, 56); stroke-miterlimit: 10; transform-origin: 412.05px 274.325px;" id="el0qvmnujqasx" class="animable"></path><path d="M308,306.68v-45A19.64,19.64,0,0,1,327.62,242H345" style="fill: none; stroke: rgb(38, 50, 56); stroke-miterlimit: 10; transform-origin: 326.5px 274.34px;" id="elfmabs4jyrwj" class="animable"></path><line x1="344.99" y1="242.01" x2="402.23" y2="242.01" style="fill: none; stroke: rgb(38, 50, 56); stroke-miterlimit: 10; transform-origin: 373.61px 242.01px;" id="eln1hy24erwn" class="animable"></line><line x1="307.98" y1="353.01" x2="308.42" y2="353.01" style="fill: none; stroke: rgb(38, 50, 56); stroke-miterlimit: 10; transform-origin: 308.2px 353.01px;" id="elgmqdqaq8yej" class="animable"></line><path d="M308,353H269.85c-5.61,0-12.31-.42-12.88,7.15-.28,3.66,0,7.45,0,11.12v27.88" style="fill: none; stroke: rgb(38, 50, 56); stroke-miterlimit: 10; transform-origin: 282.423px 376.073px;" id="el4iprfrnnfdm" class="animable"></path><line x1="325.35" y1="353.01" x2="330.68" y2="353.01" style="fill: none; stroke: rgb(38, 50, 56); stroke-miterlimit: 10; transform-origin: 328.015px 353.01px;" id="eld59q78r12fq" class="animable"></line><line x1="336.88" y1="353.01" x2="330.68" y2="353.01" style="fill: none; stroke: rgb(38, 50, 56); stroke-miterlimit: 10; transform-origin: 333.78px 353.01px;" id="elomkbvpx5hp" class="animable"></line><line x1="308.42" y1="353.01" x2="325.35" y2="353.01" style="fill: none; stroke: rgb(38, 50, 56); stroke-miterlimit: 10; transform-origin: 316.885px 353.01px;" id="eldzm0986b5yp" class="animable"></line><line x1="308.42" y1="380.99" x2="330.68" y2="380.99" style="fill: none; stroke: rgb(38, 50, 56); stroke-miterlimit: 10; transform-origin: 319.55px 380.99px;" id="eln42ocj5rni" class="animable"></line><line x1="330.68" y1="380.99" x2="336.53" y2="380.99" style="fill: none; stroke: rgb(38, 50, 56); stroke-miterlimit: 10; transform-origin: 333.605px 380.99px;" id="el2y9ahhu08dw" class="animable"></line><line x1="308.42" y1="380.99" x2="257" y2="380.99" style="fill: none; stroke: rgb(38, 50, 56); stroke-miterlimit: 10; transform-origin: 282.71px 380.99px;" id="eldek55pc0lv" class="animable"></line><path d="M336.88,399c.29-14.44.29-29,0-43.1" style="fill: none; stroke: rgb(38, 50, 56); stroke-miterlimit: 10; transform-origin: 336.989px 377.45px;" id="el9affunumdam" class="animable"></path><path d="M379.55,306.68H357.29a20.41,20.41,0,0,0-20.41,20.42V353" style="fill: none; stroke: rgb(38, 50, 56); stroke-miterlimit: 10; transform-origin: 358.215px 329.84px;" id="elqylgh3od46j" class="animable"></path><line x1="336.88" y1="353.01" x2="336.88" y2="355.91" style="fill: none; stroke: rgb(38, 50, 56); stroke-miterlimit: 10; transform-origin: 336.88px 354.46px;" id="elpvicgv7jbz" class="animable"></line><line x1="439.25" y1="306.68" x2="421.87" y2="306.68" style="fill: none; stroke: rgb(38, 50, 56); stroke-miterlimit: 10; transform-origin: 430.56px 306.68px;" id="elv4dguqffbi" class="animable"></line><line x1="359.13" y1="353.01" x2="359.13" y2="355.91" style="fill: none; stroke: rgb(38, 50, 56); stroke-miterlimit: 10; transform-origin: 359.13px 354.46px;" id="ela85y6yu31n" class="animable"></line><path d="M359.13,399c0-14.44,0-29,0-43.1" style="fill: none; stroke: rgb(38, 50, 56); stroke-miterlimit: 10; transform-origin: 359.13px 377.45px;" id="elc5ihvndyv6q" class="animable"></path><path d="M379.55,306.68a20.42,20.42,0,0,0-20.42,20.42V353" style="fill: none; stroke: rgb(38, 50, 56); stroke-miterlimit: 10; transform-origin: 369.34px 329.84px;" id="ely642vjemlqq" class="animable"></path><path d="M439.25,355.91c-.08,14.09-.08,28.66,0,43.1" style="fill: none; stroke: rgb(38, 50, 56); stroke-miterlimit: 10; transform-origin: 439.22px 377.46px;" id="elt29suk4nw6p" class="animable"></path><line x1="416.99" y1="306.68" x2="421.87" y2="306.68" style="fill: none; stroke: rgb(38, 50, 56); stroke-miterlimit: 10; transform-origin: 419.43px 306.68px;" id="elc5b5plxk8qv" class="animable"></line><line x1="439.25" y1="355.91" x2="439.25" y2="306.68" style="fill: none; stroke: rgb(38, 50, 56); stroke-miterlimit: 10; transform-origin: 439.25px 331.295px;" id="elnkatu1z81jh" class="animable"></line><line x1="379.55" y1="306.68" x2="416.99" y2="306.68" style="fill: none; stroke: rgb(38, 50, 56); stroke-miterlimit: 10; transform-origin: 398.27px 306.68px;" id="elzoylo945w7" class="animable"></line></g><g id="freepik--Notebooks--inject-84" class="animable" style="transform-origin: 266.275px 435.392px;"><polygon points="222.66 403.36 183.71 430.74 240.01 432.67 276.64 405.29 222.66 403.36" style="fill: rgb(255, 255, 255); stroke: rgb(38, 50, 56); stroke-linecap: round; stroke-linejoin: round; transform-origin: 230.175px 418.015px;" id="elbqgfq2981ie" class="animable"></polygon><polygon points="183.71 430.74 184.1 433.82 240.01 436.91 240.01 432.67 183.71 430.74" style="fill: rgb(255, 255, 255); stroke: rgb(38, 50, 56); stroke-linecap: round; stroke-linejoin: round; transform-origin: 211.86px 433.825px;" id="eli5372q1f2fa" class="animable"></polygon><polygon points="240.01 436.91 277.41 407.6 276.64 405.29 240.01 432.67 240.01 436.91" style="fill: rgb(38, 50, 56); stroke: rgb(38, 50, 56); stroke-linecap: round; stroke-linejoin: round; transform-origin: 258.71px 421.1px;" id="elkuhx2u3vxmf" class="animable"></polygon><path d="M223.68,404.84s-3-3.41-4.87.26" style="fill: none; stroke: rgb(38, 50, 56); stroke-linecap: round; stroke-linejoin: round; transform-origin: 221.245px 404.249px;" id="ely6triigfzgi" class="animable"></path><path d="M220.6,407.06s-3-3.4-4.87.27" style="fill: none; stroke: rgb(38, 50, 56); stroke-linecap: round; stroke-linejoin: round; transform-origin: 218.165px 406.478px;" id="elegtoi730ivn" class="animable"></path><path d="M217.52,409.29s-3-3.41-4.87.26" style="fill: none; stroke: rgb(38, 50, 56); stroke-linecap: round; stroke-linejoin: round; transform-origin: 215.085px 408.699px;" id="elhagmuv5z2j" class="animable"></path><path d="M214.44,411.51s-3-3.4-4.87.26" style="fill: none; stroke: rgb(38, 50, 56); stroke-linecap: round; stroke-linejoin: round; transform-origin: 212.005px 410.922px;" id="elc0rx9a5450t" class="animable"></path><path d="M211.36,413.74s-3-3.41-4.86.26" style="fill: none; stroke: rgb(38, 50, 56); stroke-linecap: round; stroke-linejoin: round; transform-origin: 208.93px 413.149px;" id="elxdbb5aql4ej" class="animable"></path><path d="M208.28,416s-3-3.41-4.86.26" style="fill: none; stroke: rgb(38, 50, 56); stroke-linecap: round; stroke-linejoin: round; transform-origin: 205.85px 415.409px;" id="el1aqlgh7cmcb" class="animable"></path><path d="M205.2,418.18s-3-3.4-4.86.27" style="fill: none; stroke: rgb(38, 50, 56); stroke-linecap: round; stroke-linejoin: round; transform-origin: 202.77px 417.598px;" id="el6hqw16ak82t" class="animable"></path><path d="M202.12,420.41s-3-3.41-4.86.26" style="fill: none; stroke: rgb(38, 50, 56); stroke-linecap: round; stroke-linejoin: round; transform-origin: 199.69px 419.819px;" id="elq50htwm2qv" class="animable"></path><path d="M199.05,422.63s-3-3.4-4.87.27" style="fill: none; stroke: rgb(38, 50, 56); stroke-linecap: round; stroke-linejoin: round; transform-origin: 196.615px 422.048px;" id="elw79xu4i194" class="animable"></path><path d="M196,424.86s-3-3.41-4.87.26" style="fill: none; stroke: rgb(38, 50, 56); stroke-linecap: round; stroke-linejoin: round; transform-origin: 193.565px 424.269px;" id="el52ff5laatph" class="animable"></path><path d="M192.89,427.08s-3-3.4-4.87.26" style="fill: none; stroke: rgb(38, 50, 56); stroke-linecap: round; stroke-linejoin: round; transform-origin: 190.455px 426.492px;" id="elfc3kye8xung" class="animable"></path><path d="M189.81,429.31s-3-3.41-4.87.26" style="fill: none; stroke: rgb(38, 50, 56); stroke-linecap: round; stroke-linejoin: round; transform-origin: 187.375px 428.719px;" id="elm13ya0bne7k" class="animable"></path><polygon points="176.03 451.38 182.06 452.4 176.19 454.37 176.03 451.38" style="fill: rgb(255, 255, 255); stroke: rgb(38, 50, 56); stroke-linecap: round; stroke-linejoin: round; transform-origin: 179.045px 452.875px;" id="elzf20sl0qb0g" class="animable"></polygon><path d="M124.85,457.13a1.5,1.5,0,0,1-.08-3L176,451.38a1.52,1.52,0,0,1,1.58,1.42,1.5,1.5,0,0,1-1.42,1.57l-51.25,2.75Z" style="fill: rgb(33, 241, 90); stroke: rgb(38, 50, 56); stroke-linecap: round; stroke-linejoin: round; transform-origin: 150.446px 454.255px;" id="elwgwsbxb26u" class="animable"></path><path d="M179.31,451.93a8,8,0,0,1,.26,1.31l2.49-.84Z" style="fill: rgb(255, 255, 255); stroke: rgb(38, 50, 56); stroke-linecap: round; stroke-linejoin: round; transform-origin: 180.685px 452.585px;" id="elu3kk8u5zr69" class="animable"></path><path d="M129.25,453.89l-4.48.24a1.5,1.5,0,0,0,.08,3h.09l4.45-.25A1.65,1.65,0,0,0,129.25,453.89Z" style="fill: rgb(255, 255, 255); stroke: rgb(38, 50, 56); stroke-linecap: round; stroke-linejoin: round; transform-origin: 126.793px 455.51px;" id="elqs7x50dpu2k" class="animable"></path><polygon points="205.82 453.85 211.94 453.93 206.43 456.79 205.82 453.85" style="fill: rgb(255, 255, 255); stroke: rgb(38, 50, 56); stroke-linecap: round; stroke-linejoin: round; transform-origin: 208.88px 455.32px;" id="elxhlq645nt7" class="animable"></polygon><path d="M156.12,467.35a1.5,1.5,0,0,1-.54-3l50.24-10.55a1.5,1.5,0,0,1,.61,2.94L156.2,467.33Z" style="fill: rgb(33, 241, 90); stroke: rgb(38, 50, 56); stroke-linecap: round; stroke-linejoin: round; transform-origin: 180.977px 460.571px;" id="eleqpce0hyy74" class="animable"></path><path d="M209.14,453.9a7.26,7.26,0,0,1,.46,1.25l2.34-1.22Z" style="fill: rgb(255, 255, 255); stroke: rgb(38, 50, 56); stroke-linecap: round; stroke-linejoin: round; transform-origin: 210.54px 454.525px;" id="elxc3jpaernq8" class="animable"></path><path d="M160,463.48l-4.39.92a1.5,1.5,0,0,0,.54,3l.08,0,4.36-.93A1.65,1.65,0,0,0,160,463.48Z" style="fill: rgb(255, 255, 255); stroke: rgb(38, 50, 56); stroke-linecap: round; stroke-linejoin: round; transform-origin: 157.84px 465.452px;" id="elkgn4scb622" class="animable"></path><polygon points="403.12 442.93 409.24 443.02 403.74 445.87 403.12 442.93" style="fill: rgb(255, 255, 255); stroke: rgb(38, 50, 56); stroke-linecap: round; stroke-linejoin: round; transform-origin: 406.18px 444.4px;" id="eld92jkoz9ppf" class="animable"></polygon><path d="M353.42,456.43a1.5,1.5,0,0,1-.53-2.95l50.23-10.55a1.52,1.52,0,0,1,1.78,1.16,1.5,1.5,0,0,1-1.16,1.78L353.5,456.42Z" style="fill: rgb(33, 241, 90); stroke: rgb(38, 50, 56); stroke-linecap: round; stroke-linejoin: round; transform-origin: 378.326px 449.672px;" id="elkt98a47018f" class="animable"></path><path d="M406.45,443a9.09,9.09,0,0,1,.45,1.25l2.34-1.21Z" style="fill: rgb(255, 255, 255); stroke: rgb(38, 50, 56); stroke-linecap: round; stroke-linejoin: round; transform-origin: 407.845px 443.625px;" id="els1r1zqrjvq" class="animable"></path><path d="M357.28,452.56l-4.39.92a1.5,1.5,0,0,0,.53,2.95h.08l4.36-.94A1.65,1.65,0,0,0,357.28,452.56Z" style="fill: rgb(255, 255, 255); stroke: rgb(38, 50, 56); stroke-linecap: round; stroke-linejoin: round; transform-origin: 355.125px 454.502px;" id="el6uvaj7naex7" class="animable"></path><polygon points="250.04 415.25 217.65 459.59 275.88 464.22 302.1 417.56 250.04 415.25" style="fill: rgb(33, 241, 90); stroke: rgb(38, 50, 56); stroke-linecap: round; stroke-linejoin: round; transform-origin: 259.875px 439.735px;" id="elp7e50ju6pgi" class="animable"></polygon><polygon points="217.65 459.59 219.19 462.29 275.88 466.92 275.88 464.22 217.65 459.59" style="fill: rgb(255, 255, 255); stroke: rgb(38, 50, 56); stroke-linecap: round; stroke-linejoin: round; transform-origin: 246.765px 463.255px;" id="ely9v19blxg4s" class="animable"></polygon><polygon points="275.88 466.92 301.71 421.03 302.1 417.56 275.88 464.22 275.88 466.92" style="fill: rgb(38, 50, 56); stroke: rgb(38, 50, 56); stroke-linecap: round; stroke-linejoin: round; transform-origin: 288.99px 442.24px;" id="elrng0z1z1p2" class="animable"></polygon><path d="M250.39,418.34s-4-2.25-4.52,1.81" style="fill: none; stroke: rgb(38, 50, 56); stroke-linecap: round; stroke-linejoin: round; transform-origin: 248.13px 418.934px;" id="el4oxebsi13it" class="animable"></path><path d="M248.19,421.44s-4-2.25-4.52,1.81" style="fill: none; stroke: rgb(38, 50, 56); stroke-linecap: round; stroke-linejoin: round; transform-origin: 245.93px 422.034px;" id="elr48siz2rse" class="animable"></path><path d="M246,424.53s-4-2.24-4.52,1.82" style="fill: none; stroke: rgb(38, 50, 56); stroke-linecap: round; stroke-linejoin: round; transform-origin: 243.74px 425.132px;" id="el3rfiyk9tz2v" class="animable"></path><path d="M243.79,427.63s-4-2.25-4.52,1.81" style="fill: none; stroke: rgb(38, 50, 56); stroke-linecap: round; stroke-linejoin: round; transform-origin: 241.53px 428.224px;" id="el5vh0i7sg4pc" class="animable"></path><path d="M241.59,430.73s-4-2.25-4.52,1.81" style="fill: none; stroke: rgb(38, 50, 56); stroke-linecap: round; stroke-linejoin: round; transform-origin: 239.33px 431.324px;" id="elcqm695q35v" class="animable"></path><path d="M239.39,433.82s-4-2.24-4.52,1.82" style="fill: none; stroke: rgb(38, 50, 56); stroke-linecap: round; stroke-linejoin: round; transform-origin: 237.13px 434.422px;" id="el0cnksbabzo7" class="animable"></path><path d="M237.19,436.92s-4-2.25-4.52,1.81" style="fill: none; stroke: rgb(38, 50, 56); stroke-linecap: round; stroke-linejoin: round; transform-origin: 234.93px 437.514px;" id="elplfkgxyfz5k" class="animable"></path><path d="M235,440s-4-2.25-4.53,1.81" style="fill: none; stroke: rgb(38, 50, 56); stroke-linecap: round; stroke-linejoin: round; transform-origin: 232.735px 440.594px;" id="el79o9lov9d6" class="animable"></path><path d="M232.8,443.11s-4-2.24-4.52,1.82" style="fill: none; stroke: rgb(38, 50, 56); stroke-linecap: round; stroke-linejoin: round; transform-origin: 230.54px 443.712px;" id="elbiz9jx33hk" class="animable"></path><path d="M230.6,446.21s-4-2.25-4.52,1.82" style="fill: none; stroke: rgb(38, 50, 56); stroke-linecap: round; stroke-linejoin: round; transform-origin: 228.34px 446.81px;" id="elu7nseluqcl" class="animable"></path><path d="M228.4,449.31s-4-2.25-4.52,1.81" style="fill: none; stroke: rgb(38, 50, 56); stroke-linecap: round; stroke-linejoin: round; transform-origin: 226.14px 449.904px;" id="elk23vxldikd" class="animable"></path><path d="M226.2,452.4s-4-2.24-4.52,1.82" style="fill: none; stroke: rgb(38, 50, 56); stroke-linecap: round; stroke-linejoin: round; transform-origin: 223.94px 453.002px;" id="eldl5zo80wk1m" class="animable"></path></g><g id="freepik--Floor--inject-84" class="animable" style="transform-origin: 255px 399.63px;"><line x1="27.67" y1="399.63" x2="482.33" y2="399.63" style="fill: none; stroke: rgb(38, 50, 56); stroke-linecap: round; stroke-linejoin: round; transform-origin: 255px 399.63px;" id="elwjzhj5u79mk" class="animable"></line></g><g id="freepik--character-2--inject-84" class="animable" style="transform-origin: 365.081px 293.198px;"><polygon points="266.46 399.32 271.32 373.53 365.4 379.31 367.12 399.32 266.46 399.32" style="fill: rgb(38, 50, 56); stroke: rgb(38, 50, 56); stroke-linecap: round; stroke-linejoin: round; transform-origin: 316.79px 386.425px;" id="elzwv844wowjj" class="animable"></polygon><path d="M318,221.6s-12.73-4.24-25.07,0-15,17.35-18.51,25.45-20,41.26-20,41.26l29.31,10.41-12.34,74.81s20.05,5.78,37.4,8.1,57.84-2.32,57.84-2.32V279.83l10,27.38s11.18-.39,19.28-5.4a57.78,57.78,0,0,0,13.88-12.73s-34.32-46.66-37-53.21-18.51-13.11-25.06-14.27S318,221.6,318,221.6Z" style="fill: rgb(255, 255, 255); transform-origin: 332.105px 300.998px;" id="ellb29ckwe8jr" class="animable"></path><path d="M368.21,284.32l40.85,3.82L407.48,286l-40-3.74Z" style="fill: rgb(38, 50, 56); transform-origin: 388.27px 285.2px;" id="elrcbjcbsg4a" class="animable"></path><polygon points="366.56 315.62 282.06 308.37 281.74 310.35 366.56 317.63 366.56 315.62" style="fill: rgb(38, 50, 56); transform-origin: 324.15px 313px;" id="el8svkgzn3qlf" class="animable"></polygon><polygon points="366.56 334.68 279.13 326.16 278.8 328.14 366.56 336.69 366.56 334.68" style="fill: rgb(38, 50, 56); transform-origin: 322.68px 331.425px;" id="elkir4jioqd5" class="animable"></polygon><path d="M366.56,282.16l-104.32-9.74-.95,1.92,105.27,9.83Z" style="fill: rgb(38, 50, 56); transform-origin: 313.925px 278.295px;" id="el22shun9vr5q" class="animable"></path><polygon points="366.56 300.97 366.56 298.96 260.84 290.62 268.1 293.19 366.56 300.97" style="fill: rgb(38, 50, 56); transform-origin: 313.7px 295.795px;" id="elcmtwslusqmj" class="animable"></polygon><path d="M396.6,301.33l-22.82-1.8.75,2.07,19,1.5c.8-.39,1.59-.82,2.35-1.29Z" style="fill: rgb(38, 50, 56); transform-origin: 385.19px 301.315px;" id="el68ytc4yohak" class="animable"></path><path d="M383.26,252.19,276,243.1c-.25.66-.49,1.31-.74,1.94l109.54,9.29Z" style="fill: rgb(38, 50, 56); transform-origin: 330.03px 248.715px;" id="el0eg40f7b68mi" class="animable"></path><polygon points="366.56 375.39 273.18 362.21 272.86 364.18 366.56 377.41 366.56 375.39" style="fill: rgb(38, 50, 56); transform-origin: 319.71px 369.81px;" id="el1lbd7jssprw" class="animable"></polygon><path d="M282.24,229.83l90.75,6.6-.26-.56a7.52,7.52,0,0,0-.86-1.52l-88.17-6.42C283.18,228.54,282.7,229.18,282.24,229.83Z" style="fill: rgb(38, 50, 56); transform-origin: 327.615px 232.18px;" id="el23vewsmsab1" class="animable"></path><polygon points="275.67 347.16 366.56 358.96 366.56 356.94 275.99 345.19 275.67 347.16" style="fill: rgb(38, 50, 56); transform-origin: 321.115px 352.075px;" id="el9ao6usrb8f6" class="animable"></polygon><path d="M268.51,259.6l-.94,1.93,129.24,9.75-1.53-2.12Z" style="fill: rgb(38, 50, 56); transform-origin: 332.19px 265.44px;" id="elvem35y9jh0n" class="animable"></path><polyline points="283.66 298.72 292.91 252.06 280.47 294.81 283.51 295.24" style="fill: rgb(38, 50, 56); transform-origin: 286.69px 275.39px;" id="elyubnd39tvn" class="animable"></polyline><polygon points="366.56 279.83 364.75 262.66 379.55 306.68 376.59 307.21 366.56 279.83" style="fill: rgb(38, 50, 56); transform-origin: 372.15px 284.935px;" id="el5hq7u51sa0m" class="animable"></polygon><path d="M318,221.6s-12.73-4.24-25.07,0-15,17.35-18.51,25.45-20,41.26-20,41.26l29.31,10.41-12.34,74.81s20.05,5.78,37.4,8.1,57.84-2.32,57.84-2.32V279.83l10,27.38s11.18-.39,19.28-5.4a57.78,57.78,0,0,0,13.88-12.73s-34.32-46.66-37-53.21-18.51-13.11-25.06-14.27S318,221.6,318,221.6Z" style="fill: none; stroke: rgb(38, 50, 56); stroke-miterlimit: 10; transform-origin: 332.105px 300.998px;" id="el4k8qgs7d90o" class="animable"></path><path d="M314.89,221.62a21.76,21.76,0,0,0-6.56,13.49c-.77,8.49-2.69,30.47-2.69,30.47s8.86-6.17,12.34-7.72,9.64-1.54,9.64-1.54,8.86,1.93,11.18,3.47,12.72,7.72,12.72,7.72S349.21,240.9,346.9,232s-8.49-11.57-18.51-11.57S314.89,221.62,314.89,221.62Z" style="fill: rgb(38, 50, 56); stroke: rgb(38, 50, 56); stroke-linecap: round; stroke-linejoin: round; transform-origin: 328.58px 243.97px;" id="el0tp30dtne2hh" class="animable"></path><path d="M314.89,220.06a21.76,21.76,0,0,0-6.56,13.49c-.77,8.49-2.69,30.47-2.69,30.47s8.86-6.17,12.34-7.71,9.64-1.55,9.64-1.55,8.86,1.93,11.18,3.47S351.52,266,351.52,266s-2.31-26.61-4.62-35.48-8.49-11.57-18.51-11.57S314.89,220.06,314.89,220.06Z" style="fill: rgb(33, 241, 90); stroke: rgb(38, 50, 56); stroke-linecap: round; stroke-linejoin: round; transform-origin: 328.58px 242.475px;" id="el44u5ek2g01z" class="animable"></path><path d="M317.59,225.46s3.86,27.76,8.48,34.32,12-25.45,12-25.45Z" style="fill: rgb(255, 255, 255); stroke: rgb(38, 50, 56); stroke-linecap: round; stroke-linejoin: round; transform-origin: 327.83px 243.063px;" id="el4yvox5zw04m" class="animable"></path><path d="M319.56,237.35c4.28,4,9,6.73,13.4,6.27a8.71,8.71,0,0,0,2.9-.89c1.31-4.66,2.17-8.4,2.17-8.4l-20.44-8.87S318.33,230.8,319.56,237.35Z" style="fill: rgb(38, 50, 56); stroke: rgb(38, 50, 56); stroke-linecap: round; stroke-linejoin: round; transform-origin: 327.81px 234.565px;" id="elg5efb5rtpt" class="animable"></path><path d="M303.71,192.68s-3.86-6.17-6.56-2.31-1.15,8.87,1.93,13.88,8.87,8.48,10,5S303.71,192.68,303.71,192.68Z" style="fill: rgb(255, 255, 255); stroke: rgb(38, 50, 56); stroke-linecap: round; stroke-linejoin: round; transform-origin: 302.486px 199.879px;" id="el9vtqc7t7pdm" class="animable"></path><path d="M363,195.38s3.86-6.17,6.56-2.31,1.16,8.86-1.93,13.88-8.87,8.48-10,5S363,195.38,363,195.38Z" style="fill: rgb(255, 255, 255); stroke: rgb(38, 50, 56); stroke-linecap: round; stroke-linejoin: round; transform-origin: 364.226px 202.58px;" id="elith8ff6fmg" class="animable"></path><path d="M304.09,197.69s3.86,18.13,9.26,26.61,13.88,16.58,21.21,15.81,15.81-13.88,19.66-21.21,7.33-11.57,8.87-21.59,3.09-17-.38-23.14-20.44-15.42-40.11-13.11-19.66,14.65-19.28,18.51S302.94,197.69,304.09,197.69Z" style="fill: rgb(255, 255, 255); stroke: rgb(38, 50, 56); stroke-linecap: round; stroke-linejoin: round; transform-origin: 334.018px 200.43px;" id="elpvxs4xykr7" class="animable"></path><path d="M326.84,205.6c0,2-.77,3.66-1.73,3.66s-1.74-1.64-1.74-3.66.78-3.67,1.74-3.67S326.84,203.57,326.84,205.6Z" style="fill: rgb(38, 50, 56); transform-origin: 325.105px 205.595px;" id="elwt55h5in2go" class="animable"></path><path d="M343.42,206.27c-.11,2-1,3.62-1.94,3.56s-1.64-1.73-1.52-3.75,1-3.62,1.94-3.56S343.54,204.25,343.42,206.27Z" style="fill: rgb(38, 50, 56); transform-origin: 341.69px 206.175px;" id="el5ulh4nke43p" class="animable"></path><path d="M328.77,216.2s4.63,6.17,8.87-.77" style="fill: none; stroke: rgb(38, 50, 56); stroke-linecap: round; stroke-linejoin: round; transform-origin: 333.205px 217.079px;" id="ela3uaqr39gvm" class="animable"></path><path d="M324.92,220.83s3.85,6.17,10,5,8.87-6.94,8.87-6.94" style="fill: none; stroke: rgb(38, 50, 56); stroke-linecap: round; stroke-linejoin: round; transform-origin: 334.355px 222.434px;" id="elfcev2vxmp46" class="animable"></path><path d="M339.18,198.08a6.89,6.89,0,0,1,8.1,2.7" style="fill: none; stroke: rgb(38, 50, 56); stroke-linecap: round; stroke-linejoin: round; transform-origin: 343.23px 199.225px;" id="elva5l4gy6qh" class="animable"></path><path d="M325.69,198.46s-6.56-3.85-9.26,4.25" style="fill: none; stroke: rgb(38, 50, 56); stroke-linecap: round; stroke-linejoin: round; transform-origin: 321.06px 200.128px;" id="el6qz3a9wy8jh" class="animable"></path><path d="M311,181.88a12,12,0,0,0,8.49.39,10.46,10.46,0,0,0,6.17-5s-.39,6.55-5.4,10.41-9.26,5.4-6.17,7.32,13.11,7.72,26.61-1.15S355,179.18,355,179.18s-4.62,8.87-.77,8.49,6.56-9.26,6.56-9.26-3.47,10.41-1.93,13.88,3.08,8.49,3.08,8.49-3.47,6.17-1.15,5.78S367,188.82,367,188.82s3.85-12.34,3.85-23.52-5.57-20.58-12.51-24.44-28.41-11.1-42.47-2.91c-11.81,6.88-18.28,25.42-17.51,31.21s5.78,28.53,5.78,28.53,2.32,3.47,3.09.39a18.71,18.71,0,0,0,0-6.94A10.88,10.88,0,0,0,311,181.88Z" style="fill: rgb(38, 50, 56); stroke: rgb(38, 50, 56); stroke-linecap: round; stroke-linejoin: round; transform-origin: 334.574px 170.392px;" id="eln7vfvw4wvp8" class="animable"></path><polygon points="333.79 410.16 305.64 426.36 316.05 429.06 339.18 416.72 333.79 410.16" style="fill: rgb(38, 50, 56); stroke: rgb(38, 50, 56); stroke-linecap: round; stroke-linejoin: round; transform-origin: 322.41px 419.61px;" id="elucpi460c3z" class="animable"></polygon><path d="M316.05,429.06a49.15,49.15,0,0,0,16.58,14.65c10.8,5.79,12.34,5.79,12.34,5.79l-14.27,2.69s-12.34-5-16.2-10.41-8.86-15.42-8.86-15.42Z" style="fill: rgb(38, 50, 56); stroke: rgb(38, 50, 56); stroke-linecap: round; stroke-linejoin: round; transform-origin: 325.305px 439.275px;" id="elc139ahmbj89" class="animable"></path><polygon points="427.1 397.82 446.77 395.9 442.91 401.29 425.56 403.22 427.1 397.82" style="fill: rgb(38, 50, 56); stroke: rgb(38, 50, 56); stroke-linecap: round; stroke-linejoin: round; transform-origin: 436.165px 399.56px;" id="ely9ph18lblh" class="animable"></polygon><path d="M442.91,401.29l22.75,6.56,9.64-.39,1.16-5.39s-9.25.38-11.57.38-18.12-6.55-18.12-6.55Z" style="fill: rgb(38, 50, 56); stroke: rgb(38, 50, 56); stroke-linecap: round; stroke-linejoin: round; transform-origin: 459.685px 401.875px;" id="elo1gc2gjml68" class="animable"></path><path d="M305.25,333.81s-.4.22-1,.61c-1.76,1.15-5.28,3.74-5.57,6.33-.38,3.47-4.24,16.58-1.15,27s33.93,40.87,39.72,49.74,22.36,19.28,43.57,11.18,45.5-18.51,47.43-27.38-2.31-21.2-5.78-26.22-18.51-15-27-21.59-41.64-27-48.58-28.54S312.19,329.57,305.25,333.81Z" style="fill: rgb(33, 241, 90); stroke: rgb(38, 50, 56); stroke-linecap: round; stroke-linejoin: round; transform-origin: 362.537px 378.143px;" id="elmslhvwvfkam" class="animable"></path><path d="M428.26,401.29c1.93-8.86-2.31-21.2-5.78-26.22-3.3-4.75-17-14-25.65-20.56-11.77,4.86-25.74,12.36-41.16,20.82-19.06,10.47-26.59,21-29.27,29.13,5,5.57,9.08,10.31,10.86,13,5.78,8.87,22.36,19.28,43.57,11.18S426.33,410.16,428.26,401.29Z" style="fill: rgb(120, 128, 132); stroke: rgb(0, 0, 0); stroke-miterlimit: 10; transform-origin: 377.572px 393.034px;" id="elx9hrdzh8hjp" class="animable"></path><polygon points="301.78 328.8 301.54 331.26 315.06 355.14 315.49 352.98 301.78 328.8" style="fill: rgb(255, 255, 255); stroke: rgb(38, 50, 56); stroke-linecap: round; stroke-linejoin: round; transform-origin: 308.515px 341.97px;" id="elydf6x5iy6" class="animable"></polygon><polygon points="325.3 370.83 301.78 328.8 355.76 311.83 376.2 350.39 325.3 370.83" style="fill: rgb(255, 255, 255); stroke: rgb(38, 50, 56); stroke-linecap: round; stroke-linejoin: round; transform-origin: 338.99px 341.33px;" id="ele82u0nnhalo" class="animable"></polygon><path d="M304.37,329.94s-3.57,1.37-1.05,4.77" style="fill: none; stroke: rgb(38, 50, 56); stroke-linecap: round; stroke-linejoin: round; transform-origin: 303.395px 332.325px;" id="elo6q2lw8eghb" class="animable"></path><path d="M306,332.92s-3.57,1.37-1.05,4.77" style="fill: none; stroke: rgb(38, 50, 56); stroke-linecap: round; stroke-linejoin: round; transform-origin: 305.025px 335.305px;" id="elohia78ak7qk" class="animable"></path><path d="M307.66,335.91s-3.57,1.37-1.05,4.77" style="fill: none; stroke: rgb(38, 50, 56); stroke-linecap: round; stroke-linejoin: round; transform-origin: 306.685px 338.295px;" id="el4g0vbysdbps" class="animable"></path><path d="M309.3,338.9s-3.56,1.37-1.05,4.77" style="fill: none; stroke: rgb(38, 50, 56); stroke-linecap: round; stroke-linejoin: round; transform-origin: 308.327px 341.285px;" id="elye4m276gxp" class="animable"></path><path d="M311,341.88s-3.57,1.37-1.05,4.77" style="fill: none; stroke: rgb(38, 50, 56); stroke-linecap: round; stroke-linejoin: round; transform-origin: 310.025px 344.265px;" id="el2j1go7w4o8" class="animable"></path><path d="M312.6,344.87s-3.57,1.37-1.05,4.77" style="fill: none; stroke: rgb(38, 50, 56); stroke-linecap: round; stroke-linejoin: round; transform-origin: 311.625px 347.255px;" id="elakzynid4k3c" class="animable"></path><path d="M314.24,347.86s-3.57,1.37-1.05,4.77" style="fill: none; stroke: rgb(38, 50, 56); stroke-linecap: round; stroke-linejoin: round; transform-origin: 313.265px 350.245px;" id="elhhuypqbkop" class="animable"></path><path d="M294.84,298.72s-30.46-8.87-36.25-9.25-5.87,7-3.17,12.83,18.21,14.16,29.78,14.55,30.85,3.85,30.85,3.85,5.4,11.18,6.55,13.5,5,7.71,5,7.71l23.13-5.4s-12.34-12.72-18.12-20.44S294.84,298.72,294.84,298.72Z" style="fill: rgb(255, 255, 255); stroke: rgb(38, 50, 56); stroke-linecap: round; stroke-linejoin: round; transform-origin: 302.216px 315.683px;" id="elxu05y4jcjxr" class="animable"></path><path d="M359.24,330.73c-1.16.38-13.12.77-27,6.55s-17,8.1-18.89,15.43-1.93,9.25,2.7,18.12,25.45,37,39.33,38.95,41.26-5.79,50.9-11.57,13.5-16.2,12-20-11.18-17-24.29-29.69S359.24,330.73,359.24,330.73Z" style="fill: rgb(33, 241, 90); stroke: rgb(38, 50, 56); stroke-linecap: round; stroke-linejoin: round; transform-origin: 365.372px 370.409px;" id="elwarr4yb8zv" class="animable"></path><path d="M395.87,301.81a36,36,0,0,1-10.58,4.13l-7.16,28.64s-19.28-10.79-22-10-8.48,10.8-8.87,13.49-.77,5.79.77,6.56,15.81,4.63,18.9,4.63a20.21,20.21,0,0,0,6.17-1.16l.38-3.47s4.63,3.86,8.1,1.54a15.14,15.14,0,0,0,5-5.78s19.67-36.63,21.21-41.26c1.22-3.67,1.47-6.36.18-7.9A56.33,56.33,0,0,1,395.87,301.81Z" style="fill: rgb(255, 255, 255); stroke: rgb(38, 50, 56); stroke-linecap: round; stroke-linejoin: round; transform-origin: 377.871px 320.245px;" id="elvqb1bznwrj" class="animable"></path><path d="M357.31,327.64s-6.17,12.34-6.17,14.27a8.59,8.59,0,0,0,.77,3.47" style="fill: rgb(255, 255, 255); stroke: rgb(38, 50, 56); stroke-linecap: round; stroke-linejoin: round; transform-origin: 354.225px 336.51px;" id="ela51419xnsg" class="animable"></path><path d="M361.16,329.19s-6.17,13.49-3.47,18.12" style="fill: rgb(255, 255, 255); stroke: rgb(38, 50, 56); stroke-linecap: round; stroke-linejoin: round; transform-origin: 359.083px 338.25px;" id="elp1uioeprg0c" class="animable"></path><path d="M366.18,332.66s-3.47,11.18-2.7,12.34,1.93,3.47,3.47,4.24" style="fill: rgb(255, 255, 255); stroke: rgb(38, 50, 56); stroke-linecap: round; stroke-linejoin: round; transform-origin: 365.159px 340.95px;" id="elfb5v628hsoc" class="animable"></path><path d="M418.23,378.16a27,27,0,0,0-2.49-4.31c.35,4.8-1.06,8.87-4.45,13.18-4.24,5.4-37.4,17.35-50.13,16.58s-32-23.91-39.33-34.32c-7-9.92-5.56-21.93-5.41-23.05a15.54,15.54,0,0,0-3.07,6.47c-1.93,7.32-1.93,9.25,2.7,18.12s25.45,37,39.33,38.95,41.26-5.79,50.9-11.57S419.78,382,418.23,378.16Z" style="fill: rgb(255, 255, 255); stroke: rgb(38, 50, 56); stroke-linecap: round; stroke-linejoin: round; transform-origin: 365.347px 378.164px;" id="elh0p0pxdxwo5" class="animable"></path></g><g id="freepik--character-1--inject-84" class="animable" style="transform-origin: 144.347px 286.712px;"><path d="M186.09,170.5s9.5,38,25.5,58.5,30.5,27,30,51.5-17.5,25-33,25-26-15-41-16-18.5-9.5-16-28,18.81-82.95,21-89S183.59,167.5,186.09,170.5Z" style="fill: rgb(38, 50, 56); stroke: rgb(38, 50, 56); stroke-linecap: round; stroke-linejoin: round; transform-origin: 196.228px 236.798px;" id="el9ryahlxw1ul" class="animable"></path><path d="M150.16,237.73s-20.51,6.69-23.63,10.26S94,289.47,94,293.93s4,7.58,11.15,7.13,29.43-21.85,29.43-21.85v72.7c0,4.9-14.27,47.72-14.27,47.72H227.77l-19.18-47.72s3.12-77.61,2.68-84.3.89-13.82-2.68-18.73-25.42-11.59-29.44-12S156,235.5,150.16,237.73Z" style="fill: rgb(38, 50, 56); stroke: rgb(38, 50, 56); stroke-linecap: round; stroke-linejoin: round; transform-origin: 160.885px 317.972px;" id="elv1ojisy2nce" class="animable"></path><path d="M137.41,282.31l2.06-40.77c-5.51,2.12-11.39,4.67-12.94,6.45C123.4,251.56,94,289.47,94,293.93s4,7.58,11.15,7.13,29.43-21.85,29.43-21.85v5.58C136.33,283.26,137.41,282.31,137.41,282.31Z" style="fill: rgb(255, 255, 255); stroke: rgb(38, 50, 56); stroke-linecap: round; stroke-linejoin: round; transform-origin: 116.735px 271.322px;" id="elr28yr9anu1d" class="animable"></path><path d="M208.59,351.91s3.12-77.61,2.68-84.3.89-13.82-2.68-18.73-25.42-11.59-29.44-12-23.19-1.34-29,.89c0,0-7.65,2.5-14.32,5.25l-.75,1.52-.54,34.71v72.07c8.5,4.6,34.87,15.56,74.43,1.61Z" style="fill: rgb(33, 241, 90); transform-origin: 172.926px 298.053px;" id="elj8sizngu1k" class="animable"></path><path d="M182,269.33a1.65,1.65,0,0,0,1.28.8,5.06,5.06,0,0,0,2.2-.39c-.5.93-1.07,2.19-.87,2.82.33,1.06,2.06,1.24,2.79,1.27h.31c1,0,2.42-.18,2.69-.86a4.45,4.45,0,0,0-.17-2.19,2.32,2.32,0,0,0,2.49.43,3.08,3.08,0,0,0,1.73-2.16,2.69,2.69,0,0,0-.32-2.23c-.54-.67-2.18-.77-3.18-.77a5,5,0,0,0,.83-2.5c0-.67-.53-1.26-1.47-1.6-1.21-.45-2.89-.42-3.6.4a3.14,3.14,0,0,0-.45,2.89l-.14.2c-.8-.23-3.15-.71-3.93,1.15A3.16,3.16,0,0,0,182,269.33Zm7.72,3.37a4.78,4.78,0,0,1-3,.33c-.79-.12-1.31-.38-1.41-.69s.6-2,1.36-3.17c0,0,0,0,0,0a2.39,2.39,0,0,0,1.54.57,2.48,2.48,0,0,0,.86-.16A8.31,8.31,0,0,1,189.73,272.7Zm.19-5.43a1.69,1.69,0,1,1-1.69-1.69A1.69,1.69,0,0,1,189.92,267.27Zm3.64,0a2,2,0,0,1,.19,1.6,2.43,2.43,0,0,1-1.33,1.66c-1.3.59-2.46-1.07-2.68-1.39a2.37,2.37,0,0,0,.87-2.36C191.73,266.77,193.24,266.89,193.56,267.29Zm-6.28-4.45a2.92,2.92,0,0,1,2.79-.19c.62.23,1,.57,1,.91a4.5,4.5,0,0,1-.86,2.3,2.44,2.44,0,0,0-2-1,2.33,2.33,0,0,0-1.2.34h0A2.48,2.48,0,0,1,187.28,262.84Zm-4.4,4c.59-1.41,2.75-.82,3.18-.68a2.45,2.45,0,0,0-.26,1.07,2.4,2.4,0,0,0,.43,1.37h0a6.47,6.47,0,0,1-2.81.76,1,1,0,0,1-.74-.43A2.63,2.63,0,0,1,182.88,266.88Z" style="fill: rgb(255, 255, 255); transform-origin: 188.168px 267.745px;" id="el3hrm3lt39kp" class="animable"></path><path d="M176.72,347.09a3.11,3.11,0,0,0-.45,2.89l-.15.2c-.8-.23-3.15-.71-3.92,1.15a3.12,3.12,0,0,0-.19,2.73,1.65,1.65,0,0,0,1.27.8,5.25,5.25,0,0,0,2.21-.39c-.5.93-1.07,2.19-.88,2.82.33,1.06,2.07,1.24,2.79,1.27h.31c1,0,2.42-.17,2.69-.85a4.33,4.33,0,0,0-.17-2.19,2.31,2.31,0,0,0,2.49.42,3.07,3.07,0,0,0,1.74-2.15,2.73,2.73,0,0,0-.33-2.23c-.54-.67-2.17-.77-3.18-.78a5,5,0,0,0,.84-2.49c0-.68-.54-1.26-1.47-1.61C179.1,346.23,177.43,346.26,176.72,347.09Zm3.2,4.91a1.69,1.69,0,1,1-1.69-1.69A1.69,1.69,0,0,1,179.92,352Zm-6.53,2.13a.94.94,0,0,1-.74-.43,2.59,2.59,0,0,1,.23-2.09c.59-1.41,2.74-.82,3.18-.68a2.38,2.38,0,0,0-.26,1.07,2.43,2.43,0,0,0,.42,1.36h0A6.55,6.55,0,0,1,173.39,354.13Zm6.34,3.3a4.9,4.9,0,0,1-3,.32c-.79-.11-1.32-.37-1.41-.68s.6-2,1.35-3.18a0,0,0,0,0,0,0,2.42,2.42,0,0,0,1.55.57,2.38,2.38,0,0,0,.85-.16A8.14,8.14,0,0,1,179.73,357.43Zm3.83-5.41a2,2,0,0,1,.18,1.6,2.37,2.37,0,0,1-1.32,1.65c-1.3.59-2.47-1.06-2.68-1.38a2.45,2.45,0,0,0,.92-1.89,2.42,2.42,0,0,0,0-.47C181.73,351.5,183.24,351.62,183.56,352Zm-2.51-3.73a4.62,4.62,0,0,1-.85,2.3,2.44,2.44,0,0,0-2-1,2.39,2.39,0,0,0-1.21.34h0a2.53,2.53,0,0,1,.26-2.33c.42-.5,1.72-.59,2.78-.2C180.68,347.6,181.05,347.94,181.05,348.29Z" style="fill: rgb(255, 255, 255); transform-origin: 178.174px 352.475px;" id="elnzi6utdjemb" class="animable"></path><path d="M137.45,242.33a2.08,2.08,0,0,0,.22,1.06,1.65,1.65,0,0,0,1.28.8,5,5,0,0,0,2.21-.39c-.51.93-1.08,2.19-.88,2.82.33,1.06,2.06,1.24,2.79,1.27h.31c1,0,2.42-.18,2.69-.85a4.37,4.37,0,0,0-.17-2.2,2.32,2.32,0,0,0,2.49.43,3.12,3.12,0,0,0,1.74-2.15,2.75,2.75,0,0,0-.33-2.24c-.54-.67-2.18-.76-3.18-.77a6.43,6.43,0,0,0,.64-1.41l-.89.31a5.43,5.43,0,0,1-.51.9,2.22,2.22,0,0,0-.53-.53l-1,.33a1.69,1.69,0,1,1-2.18,1.61,1.72,1.72,0,0,1,.28-.92l-.94.35a2.62,2.62,0,0,0-.07.57,2.39,2.39,0,0,0,.42,1.37h0a6.47,6.47,0,0,1-2.8.76,1,1,0,0,1-.75-.43,1.62,1.62,0,0,1-.08-1Zm8.87-1a2.49,2.49,0,0,0,0-.47c1.11,0,2.62.09,2.94.49a2,2,0,0,1,.19,1.6,2.43,2.43,0,0,1-1.33,1.66c-1.29.59-2.46-1.07-2.67-1.39A2.43,2.43,0,0,0,146.32,241.33Zm-4,1.9s0,0,0,0a2.39,2.39,0,0,0,1.54.57,2.43,2.43,0,0,0,.86-.16,8.31,8.31,0,0,1,.64,3.16,4.76,4.76,0,0,1-3,.33c-.78-.12-1.31-.38-1.41-.69S141.59,244.44,142.34,243.23Z" style="fill: rgb(255, 255, 255); transform-origin: 143.841px 243.295px;" id="elx70gnomf1oo" class="animable"></path><path d="M210.32,305.76a4.76,4.76,0,0,1-3,.33c-.78-.12-1.31-.38-1.41-.69s.61-2,1.36-3.17c0,0,0,0,0,0a2.39,2.39,0,0,0,1.54.57,2.43,2.43,0,0,0,.86-.16,13.79,13.79,0,0,1,.66,2.6c0-.94.07-1.89.1-2.83a.77.77,0,0,1-.1-.15l.11-.1.06-1.71a1.72,1.72,0,1,1,0-.11l.06-1.65a2.41,2.41,0,0,0-1.75-.74,2.35,2.35,0,0,0-1.2.33h0a2.48,2.48,0,0,1,.25-2.33,3,3,0,0,1,2.79-.19h0l0-.76c-1.19-.37-2.71-.3-3.38.47a3.1,3.1,0,0,0-.44,2.89l-.15.2c-.8-.23-3.15-.71-3.92,1.15a3.17,3.17,0,0,0-.2,2.73,1.65,1.65,0,0,0,1.28.8,5,5,0,0,0,2.21-.39c-.51.93-1.08,2.19-.88,2.82.33,1.06,2.06,1.24,2.79,1.27h.31a6,6,0,0,0,2-.29l0-.87Zm-6.34-3.3a1,1,0,0,1-.74-.43,2.62,2.62,0,0,1,.24-2.08c.58-1.42,2.74-.82,3.18-.69a2.45,2.45,0,0,0-.26,1.07,2.39,2.39,0,0,0,.42,1.37h0A6.47,6.47,0,0,1,204,302.46Z" style="fill: rgb(255, 255, 255); transform-origin: 206.496px 300.863px;" id="elw73bls2ecq9" class="animable"></path><path d="M136.85,342.78c-.51.94-1.07,2.19-.88,2.82.33,1.06,2.06,1.24,2.79,1.27h.31c1,0,2.42-.18,2.69-.85a4.33,4.33,0,0,0-.17-2.19,2.34,2.34,0,0,0,2.49.42,3.12,3.12,0,0,0,1.74-2.15,2.75,2.75,0,0,0-.33-2.24c-.54-.67-2.18-.76-3.18-.77a5,5,0,0,0,.84-2.5c0-.67-.54-1.26-1.48-1.6-1.21-.45-2.89-.42-3.59.41a3.09,3.09,0,0,0-.45,2.88l-.15.2a4.42,4.42,0,0,0-2.93.08v.89c.83-.79,2.49-.33,2.87-.22a2.46,2.46,0,0,0-.26,1.08,2.38,2.38,0,0,0,.42,1.36h0a6.33,6.33,0,0,1-2.8.77l-.2-.07v.77l.09,0A5.14,5.14,0,0,0,136.85,342.78Zm8.06-2.45a2,2,0,0,1,.19,1.61,2.4,2.4,0,0,1-1.32,1.65c-1.3.59-2.47-1.07-2.68-1.39a2.41,2.41,0,0,0,.91-1.88,2.52,2.52,0,0,0,0-.48C143.08,339.82,144.6,339.94,144.91,340.33Zm-7,0a1.69,1.69,0,1,1,1.69,1.69A1.69,1.69,0,0,1,137.9,340.32Zm.74-4.43c.42-.5,1.72-.59,2.78-.2.62.23,1,.57,1,.91a4.62,4.62,0,0,1-.85,2.31,2.42,2.42,0,0,0-2-1,2.39,2.39,0,0,0-1.21.33h0A2.5,2.5,0,0,1,138.64,335.89Zm-.61,6.32s0,0,0,0a2.37,2.37,0,0,0,2.4.41,8.15,8.15,0,0,1,.64,3.16,4.76,4.76,0,0,1-3,.33c-.78-.12-1.31-.38-1.41-.69S137.28,343.42,138,342.21Z" style="fill: rgb(255, 255, 255); transform-origin: 140.238px 340.785px;" id="elgx41g09jwh5" class="animable"></path><path d="M172.05,336.23c1,0,2.42-.18,2.69-.85a4.56,4.56,0,0,0-.17-2.19,2.34,2.34,0,0,0,2.49.42,3.06,3.06,0,0,0,1.73-2.15,2.69,2.69,0,0,0-.33-2.24c-.53-.67-2.17-.76-3.17-.77a5.11,5.11,0,0,0,.83-2.5c0-.67-.53-1.25-1.47-1.6-1.21-.45-2.89-.42-3.6.41a3.09,3.09,0,0,0-.45,2.88l-.14.2c-.81-.22-3.15-.7-3.93,1.16a3.16,3.16,0,0,0-.19,2.73,1.68,1.68,0,0,0,1.28.8,5.07,5.07,0,0,0,2.2-.4c-.5.94-1.07,2.19-.87,2.82.33,1.06,2.06,1.25,2.79,1.27Zm5.84-6.54a2,2,0,0,1,.19,1.6,2.39,2.39,0,0,1-1.33,1.65c-1.3.59-2.47-1.06-2.68-1.39a2.39,2.39,0,0,0,.92-1.88,2.42,2.42,0,0,0-.05-.47C176.06,329.17,177.57,329.29,177.89,329.69Zm-7,0a1.69,1.69,0,1,1,1.69,1.69A1.69,1.69,0,0,1,170.87,329.67Zm.74-4.43c.43-.5,1.73-.59,2.78-.2.63.23,1,.57,1,.91a4.53,4.53,0,0,1-.86,2.31,2.39,2.39,0,0,0-3.17-.69h0A2.53,2.53,0,0,1,171.61,325.24Zm-3.89,6.56a.93.93,0,0,1-.74-.44,2.61,2.61,0,0,1,.23-2.08c.59-1.41,2.75-.82,3.18-.68a2.38,2.38,0,0,0-.26,1.07,2.46,2.46,0,0,0,.42,1.36h0A6.47,6.47,0,0,1,167.72,331.8Zm1.93,2.94c-.12-.4.6-2,1.36-3.18a.08.08,0,0,1,0,0,2.36,2.36,0,0,0,2.39.41,8.2,8.2,0,0,1,.65,3.16,4.8,4.8,0,0,1-3,.33C170.27,335.3,169.75,335.05,169.65,334.74Z" style="fill: rgb(255, 255, 255); transform-origin: 172.509px 330.145px;" id="elytcgxoruehf" class="animable"></path><path d="M139.53,258a3.16,3.16,0,0,0-.19,2.73,1.68,1.68,0,0,0,1.28.8,5.07,5.07,0,0,0,2.2-.4c-.5.94-1.07,2.19-.87,2.82.33,1.06,2.06,1.25,2.79,1.27h.31c1,0,2.42-.18,2.69-.85a4.56,4.56,0,0,0-.17-2.19,2.34,2.34,0,0,0,2.49.42,3.06,3.06,0,0,0,1.73-2.15,2.69,2.69,0,0,0-.33-2.24c-.53-.67-2.17-.76-3.17-.77a5.11,5.11,0,0,0,.83-2.5c0-.67-.53-1.25-1.47-1.6-1.21-.45-2.89-.42-3.6.41a3.09,3.09,0,0,0-.45,2.88l-.14.2C142.65,256.62,140.31,256.14,139.53,258Zm7.72.67a1.69,1.69,0,1,1-1.69-1.69A1.69,1.69,0,0,1,147.25,258.67Zm-6.53,2.13a.93.93,0,0,1-.74-.44,2.61,2.61,0,0,1,.23-2.08c.59-1.41,2.75-.82,3.18-.68a2.38,2.38,0,0,0-.26,1.07,2.46,2.46,0,0,0,.42,1.36h0A6.47,6.47,0,0,1,140.72,260.8Zm6.34,3.29a4.8,4.8,0,0,1-3,.33c-.79-.12-1.31-.37-1.41-.68s.6-2,1.36-3.18a.08.08,0,0,1,0,0,2.36,2.36,0,0,0,2.39.41A8.2,8.2,0,0,1,147.06,264.09Zm3.83-5.4a2,2,0,0,1,.19,1.6,2.39,2.39,0,0,1-1.33,1.65c-1.3.59-2.47-1.06-2.68-1.39a2.39,2.39,0,0,0,.92-1.88,2.42,2.42,0,0,0-.05-.47C149.06,258.17,150.57,258.29,150.89,258.69Zm-6.28-4.45c.43-.5,1.73-.59,2.78-.2.63.23,1,.57,1,.91a4.53,4.53,0,0,1-.86,2.31,2.39,2.39,0,0,0-3.17-.69h0A2.53,2.53,0,0,1,144.61,254.24Z" style="fill: rgb(255, 255, 255); transform-origin: 145.509px 259.135px;" id="elos2iew460s" class="animable"></path><path d="M202.06,343.61a3.06,3.06,0,0,0,1.73-2.15,2.69,2.69,0,0,0-.33-2.24c-.53-.67-2.17-.76-3.17-.77a5.11,5.11,0,0,0,.83-2.5c0-.67-.53-1.25-1.47-1.6-1.21-.45-2.89-.42-3.6.41a3.09,3.09,0,0,0-.45,2.88l-.14.2c-.81-.22-3.15-.7-3.93,1.16a3.16,3.16,0,0,0-.19,2.73,1.68,1.68,0,0,0,1.28.8,5.07,5.07,0,0,0,2.2-.4c-.5.94-1.07,2.19-.87,2.82.33,1.06,2.06,1.25,2.79,1.27h.31c1,0,2.42-.18,2.69-.85a4.56,4.56,0,0,0-.17-2.19A2.34,2.34,0,0,0,202.06,343.61Zm-5.45-8.37c.43-.5,1.73-.59,2.78-.2.63.23,1,.57,1,.91a4.53,4.53,0,0,1-.86,2.31,2.39,2.39,0,0,0-3.17-.69h0A2.53,2.53,0,0,1,196.61,335.24Zm.95,6.12a1.69,1.69,0,1,1,1.69-1.69A1.69,1.69,0,0,1,197.56,341.36Zm-4.84.44a.93.93,0,0,1-.74-.44,2.61,2.61,0,0,1,.23-2.08c.59-1.41,2.75-.82,3.18-.68a2.38,2.38,0,0,0-.26,1.07,2.46,2.46,0,0,0,.42,1.36h0A6.47,6.47,0,0,1,192.72,341.8Zm6.34,3.29a4.8,4.8,0,0,1-3,.33c-.79-.12-1.31-.37-1.41-.68s.6-2,1.36-3.18a.08.08,0,0,1,0,0,2.36,2.36,0,0,0,2.39.41A8.2,8.2,0,0,1,199.06,345.09Zm0-3.54a2.39,2.39,0,0,0,.92-1.88,2.42,2.42,0,0,0-.05-.47c1.12,0,2.63.09,2.95.49a2,2,0,0,1,.19,1.6,2.39,2.39,0,0,1-1.33,1.65C200.45,343.53,199.28,341.88,199.07,341.55Z" style="fill: rgb(255, 255, 255); transform-origin: 197.509px 340.14px;" id="elv55lcfvg0ob" class="animable"></path><path d="M141.61,295.29c.33,1.06,2.07,1.24,2.79,1.27h.31c1,0,2.42-.17,2.69-.85a4.33,4.33,0,0,0-.17-2.19,2.31,2.31,0,0,0,2.49.42,3.07,3.07,0,0,0,1.74-2.15,2.73,2.73,0,0,0-.33-2.23c-.54-.67-2.17-.77-3.18-.78a5,5,0,0,0,.84-2.49c0-.68-.54-1.26-1.47-1.61-1.22-.45-2.89-.42-3.6.41a3.11,3.11,0,0,0-.45,2.89l-.15.2c-.8-.23-3.15-.71-3.92,1.15a3.12,3.12,0,0,0-.19,2.73,1.65,1.65,0,0,0,1.27.8,5.25,5.25,0,0,0,2.21-.39C142,293.4,141.42,294.66,141.61,295.29Zm8.95-5.27a2,2,0,0,1,.18,1.6,2.37,2.37,0,0,1-1.32,1.65c-1.3.59-2.47-1.06-2.68-1.38a2.45,2.45,0,0,0,.92-1.89,2.42,2.42,0,0,0,0-.47C148.73,289.5,150.24,289.62,150.56,290Zm-7,0a1.69,1.69,0,1,1,1.69,1.69A1.69,1.69,0,0,1,143.54,290Zm.74-4.43c.42-.5,1.72-.59,2.78-.2.62.23,1,.57,1,.92a4.62,4.62,0,0,1-.85,2.3,2.44,2.44,0,0,0-2-1,2.39,2.39,0,0,0-1.21.34h0A2.53,2.53,0,0,1,144.28,285.57Zm-3.89,6.56a.94.94,0,0,1-.74-.43,2.59,2.59,0,0,1,.23-2.09c.59-1.41,2.74-.82,3.18-.68a2.38,2.38,0,0,0-.26,1.07,2.43,2.43,0,0,0,.42,1.36h0A6.55,6.55,0,0,1,140.39,292.13Zm3.28-.24a0,0,0,0,0,0,0,2.42,2.42,0,0,0,1.55.57,2.38,2.38,0,0,0,.85-.16,8.14,8.14,0,0,1,.65,3.16,4.9,4.9,0,0,1-3,.32c-.79-.11-1.32-.37-1.41-.68S142.92,293.11,143.67,291.89Z" style="fill: rgb(255, 255, 255); transform-origin: 145.174px 290.475px;" id="elat5wh7ttm4" class="animable"></path><path d="M163.24,271.19l-.15.2c-.8-.22-3.15-.7-3.92,1.15a3.19,3.19,0,0,0-.2,2.74,1.68,1.68,0,0,0,1.28.8,5.14,5.14,0,0,0,2.21-.4c-.51.94-1.08,2.19-.88,2.82.33,1.06,2.06,1.24,2.79,1.27h.31c1,0,2.42-.18,2.69-.85a4.33,4.33,0,0,0-.17-2.19,2.34,2.34,0,0,0,2.49.42,3.12,3.12,0,0,0,1.74-2.15,2.75,2.75,0,0,0-.33-2.24c-.54-.67-2.18-.76-3.18-.77a5,5,0,0,0,.84-2.5c0-.67-.54-1.26-1.48-1.6-1.21-.45-2.89-.42-3.6.41A3.08,3.08,0,0,0,163.24,271.19Zm3.65,2a1.7,1.7,0,1,1-1.7-1.7A1.7,1.7,0,0,1,166.89,273.22Zm-6.54,2.13a1,1,0,0,1-.74-.44,2.62,2.62,0,0,1,.24-2.08c.58-1.41,2.74-.82,3.18-.69a2.46,2.46,0,0,0-.26,1.08,2.38,2.38,0,0,0,.42,1.36h0A6.34,6.34,0,0,1,160.35,275.35Zm6.34,3.29a4.76,4.76,0,0,1-3,.33c-.78-.12-1.31-.38-1.41-.69s.61-1.95,1.36-3.17c0,0,0,0,0,0a2.39,2.39,0,0,0,1.54.57,2.43,2.43,0,0,0,.86-.16A8.34,8.34,0,0,1,166.69,278.64Zm3.83-5.41a2,2,0,0,1,.19,1.61,2.39,2.39,0,0,1-1.33,1.65c-1.29.59-2.46-1.07-2.67-1.39a2.41,2.41,0,0,0,.91-1.88,2.34,2.34,0,0,0-.05-.47C168.69,272.72,170.2,272.84,170.52,273.23Zm-6.28-4.44c.43-.5,1.73-.59,2.79-.2.62.23,1,.57,1,.91a4.53,4.53,0,0,1-.86,2.31,2.4,2.4,0,0,0-2-1,2.35,2.35,0,0,0-1.2.33h0A2.48,2.48,0,0,1,164.24,268.79Z" style="fill: rgb(255, 255, 255); transform-origin: 165.144px 273.685px;" id="elu8dl61nox28" class="animable"></path><path d="M173.39,305.61a3.1,3.1,0,0,0,1.74-2.15,2.76,2.76,0,0,0-.33-2.24c-.54-.67-2.18-.76-3.18-.77a5,5,0,0,0,.84-2.5c0-.67-.54-1.25-1.48-1.6-1.21-.45-2.89-.42-3.6.41a3.08,3.08,0,0,0-.44,2.88l-.15.2c-.8-.22-3.15-.7-3.92,1.16a3.17,3.17,0,0,0-.2,2.73,1.68,1.68,0,0,0,1.28.8,5.14,5.14,0,0,0,2.21-.4c-.51.94-1.08,2.19-.88,2.82.33,1.06,2.06,1.25,2.79,1.27h.31c1,0,2.42-.18,2.69-.85a4.33,4.33,0,0,0-.17-2.19A2.34,2.34,0,0,0,173.39,305.61Zm-5.45-8.37c.43-.5,1.73-.59,2.79-.2.62.23,1,.57,1,.91a4.53,4.53,0,0,1-.86,2.31,2.4,2.4,0,0,0-2-1,2.45,2.45,0,0,0-1.2.33h0A2.48,2.48,0,0,1,167.94,297.24Zm.95,6.12a1.69,1.69,0,1,1,1.7-1.69A1.69,1.69,0,0,1,168.89,303.36Zm-4.83.44a1,1,0,0,1-.75-.44,2.62,2.62,0,0,1,.24-2.08c.59-1.41,2.74-.82,3.18-.68a2.38,2.38,0,0,0,.16,2.43h0A6.47,6.47,0,0,1,164.06,303.8Zm6.33,3.29a4.76,4.76,0,0,1-3,.33c-.78-.12-1.31-.37-1.41-.68s.61-2,1.36-3.18c0,0,0,0,0,0a2.39,2.39,0,0,0,1.54.57,2.43,2.43,0,0,0,.86-.16A8.34,8.34,0,0,1,170.39,307.09Zm0-3.54a2.45,2.45,0,0,0,.87-2.35c1.11,0,2.62.09,2.94.49a2,2,0,0,1,.19,1.6,2.39,2.39,0,0,1-1.33,1.65C171.79,305.53,170.62,303.88,170.41,303.55Z" style="fill: rgb(255, 255, 255); transform-origin: 168.843px 302.14px;" id="elf302wruqwvd" class="animable"></path><path d="M206.11,265.69l-.14.2c-.81-.23-3.15-.71-3.93,1.15a3.16,3.16,0,0,0-.19,2.73,1.65,1.65,0,0,0,1.28.8,4.91,4.91,0,0,0,2.2-.39c-.5.93-1.07,2.19-.87,2.82.33,1.06,2.06,1.24,2.79,1.27h.31c1,0,2.42-.18,2.69-.86a4.58,4.58,0,0,0-.17-2.19,2.78,2.78,0,0,0,1.22.59v-.77a3.66,3.66,0,0,1-1.72-1.45,2.41,2.41,0,0,0,.92-1.89,2.5,2.5,0,0,0-.05-.47h.8c0-.25,0-.5,0-.74h-.41c.12-.21.26-.47.39-.74,0-.92,0-1.84,0-2.76a2.77,2.77,0,0,0-1-.6c-1.21-.45-2.89-.42-3.6.4A3.14,3.14,0,0,0,206.11,265.69Zm-2.88,4.15a.92.92,0,0,1-.74-.43,2.61,2.61,0,0,1,.23-2.08c.59-1.42,2.75-.82,3.18-.69a2.39,2.39,0,0,0,.16,2.44h0A6.47,6.47,0,0,1,203.23,269.84Zm6.34,3.3a4.8,4.8,0,0,1-3,.33c-.79-.12-1.31-.38-1.41-.69s.6-2,1.36-3.17c0,0,0,0,0,0a2.39,2.39,0,0,0,1.54.57,2.48,2.48,0,0,0,.86-.16A8.31,8.31,0,0,1,209.57,273.14Zm-1.5-3.74a1.69,1.69,0,1,1,1.69-1.69A1.69,1.69,0,0,1,208.07,269.4Zm-.95-6.12a2.93,2.93,0,0,1,2.78-.19c.63.23,1,.57,1,.91a4.5,4.5,0,0,1-.86,2.3,2.44,2.44,0,0,0-2-1,2.33,2.33,0,0,0-1.2.34h0A2.48,2.48,0,0,1,207.12,263.28Z" style="fill: rgb(255, 255, 255); transform-origin: 206.463px 268.185px;" id="elgqkijv7sk97" class="animable"></path><path d="M193.58,280.68c-1.21-.45-2.89-.42-3.6.41a3.11,3.11,0,0,0-.45,2.89l-.14.2c-.81-.23-3.15-.71-3.93,1.15a3.16,3.16,0,0,0-.19,2.73,1.65,1.65,0,0,0,1.28.8,5.21,5.21,0,0,0,2.2-.39c-.5.93-1.07,2.19-.87,2.82.32,1.06,2.06,1.24,2.79,1.27H191c1,0,2.42-.17,2.69-.85a4.57,4.57,0,0,0-.17-2.19,2.3,2.3,0,0,0,2.49.42,3.06,3.06,0,0,0,1.73-2.15,2.66,2.66,0,0,0-.33-2.23c-.53-.67-2.17-.77-3.17-.78a5.11,5.11,0,0,0,.83-2.49C195.05,281.61,194.52,281,193.58,280.68Zm-.4,5.32a1.69,1.69,0,1,1-1.69-1.69A1.69,1.69,0,0,1,193.18,286Zm-6.53,2.13a.94.94,0,0,1-.74-.43,2.63,2.63,0,0,1,.23-2.09c.59-1.41,2.75-.82,3.18-.68a2.38,2.38,0,0,0-.26,1.07,2.43,2.43,0,0,0,.42,1.36h0A6.47,6.47,0,0,1,186.65,288.13Zm6.34,3.3a4.9,4.9,0,0,1-3,.32c-.79-.11-1.31-.37-1.41-.68s.6-2,1.36-3.18a0,0,0,0,1,0,0,2.36,2.36,0,0,0,2.39.41A8.14,8.14,0,0,1,193,291.43Zm3.83-5.41a2,2,0,0,1,.18,1.6,2.35,2.35,0,0,1-1.32,1.65c-1.3.59-2.47-1.06-2.68-1.38a2.37,2.37,0,0,0,.87-2.36C195,285.5,196.5,285.62,196.82,286Zm-3.36-1.43a2.44,2.44,0,0,0-2-1,2.33,2.33,0,0,0-1.2.34h0a2.53,2.53,0,0,1,.26-2.33c.43-.5,1.73-.59,2.78-.2.62.23,1,.57,1,.92A4.53,4.53,0,0,1,193.46,284.59Z" style="fill: rgb(255, 255, 255); transform-origin: 191.449px 286.475px;" id="el7zgz8f9fnmx" class="animable"></path><path d="M162.94,354.78a3.1,3.1,0,0,0,1.74-2.15,2.73,2.73,0,0,0-.33-2.23c-.54-.68-2.18-.77-3.18-.78a5,5,0,0,0,.84-2.49c0-.68-.54-1.26-1.48-1.61-1.21-.45-2.89-.42-3.59.41a3.09,3.09,0,0,0-.45,2.88l-.15.21c-.8-.23-3.15-.71-3.92,1.15a3.17,3.17,0,0,0-.2,2.73,1.65,1.65,0,0,0,1.28.8,5.28,5.28,0,0,0,2.21-.39c-.51.93-1.08,2.19-.88,2.82.33,1.06,2.06,1.24,2.79,1.27h.31c1,0,2.42-.17,2.69-.85a4.33,4.33,0,0,0-.17-2.19A2.31,2.31,0,0,0,162.94,354.78Zm-5.45-8.37c.43-.5,1.73-.59,2.79-.2.62.23,1,.57,1,.92a4.53,4.53,0,0,1-.86,2.3,2.42,2.42,0,0,0-2-1,2.46,2.46,0,0,0-1.21.33h0A2.48,2.48,0,0,1,157.49,346.41Zm1,6.12a1.69,1.69,0,1,1,1.69-1.69A1.7,1.7,0,0,1,158.45,352.53Zm-4.84.44a1,1,0,0,1-.75-.43,2.65,2.65,0,0,1,.24-2.09c.59-1.41,2.74-.82,3.18-.68a2.38,2.38,0,0,0,.16,2.43h0A6.47,6.47,0,0,1,153.61,353Zm6.33,3.3a4.87,4.87,0,0,1-3,.32c-.78-.12-1.31-.37-1.41-.68s.61-2,1.36-3.18c0,0,0,0,0,0a2.42,2.42,0,0,0,1.55.57,2.22,2.22,0,0,0,.85-.17A8.35,8.35,0,0,1,159.94,356.27Zm0-3.55a2.45,2.45,0,0,0,.87-2.35c1.11,0,2.63.09,2.94.49a2,2,0,0,1,.19,1.6,2.39,2.39,0,0,1-1.33,1.65C161.34,354.7,160.17,353.05,160,352.72Z" style="fill: rgb(255, 255, 255); transform-origin: 158.394px 351.315px;" id="eli27nzw251pp" class="animable"></path><path d="M187,319c.33,1.06,2.06,1.25,2.79,1.27h.31c1,0,2.42-.18,2.69-.85a4.56,4.56,0,0,0-.17-2.19,2.34,2.34,0,0,0,2.49.42,3.06,3.06,0,0,0,1.73-2.15,2.69,2.69,0,0,0-.33-2.24c-.53-.67-2.17-.76-3.17-.77a5.11,5.11,0,0,0,.83-2.5c0-.67-.53-1.25-1.47-1.6-1.21-.45-2.89-.42-3.6.41a3.09,3.09,0,0,0-.45,2.88l-.14.2c-.81-.22-3.15-.7-3.93,1.16a3.16,3.16,0,0,0-.19,2.73,1.68,1.68,0,0,0,1.28.8,5.07,5.07,0,0,0,2.2-.4C187.32,317.07,186.75,318.32,187,319Zm8.94-5.26a2,2,0,0,1,.19,1.6,2.39,2.39,0,0,1-1.33,1.65c-1.3.59-2.47-1.06-2.68-1.39a2.39,2.39,0,0,0,.92-1.88,2.42,2.42,0,0,0-.05-.47C194.06,313.17,195.57,313.29,195.89,313.69Zm-7,0a1.69,1.69,0,1,1,1.69,1.69A1.69,1.69,0,0,1,188.87,313.67Zm.74-4.43c.43-.5,1.73-.59,2.78-.2.63.23,1,.57,1,.91a4.53,4.53,0,0,1-.86,2.31,2.39,2.39,0,0,0-3.17-.69h0A2.53,2.53,0,0,1,189.61,309.24Zm-3.89,6.56a.93.93,0,0,1-.74-.44,2.61,2.61,0,0,1,.23-2.08c.59-1.41,2.75-.82,3.18-.68a2.38,2.38,0,0,0-.26,1.07,2.46,2.46,0,0,0,.42,1.36h0A6.47,6.47,0,0,1,185.72,315.8Zm3.29-.24a.08.08,0,0,1,0,0,2.36,2.36,0,0,0,2.39.41,8.2,8.2,0,0,1,.65,3.16,4.8,4.8,0,0,1-3,.33c-.79-.12-1.31-.37-1.41-.68S188.25,316.78,189,315.56Z" style="fill: rgb(255, 255, 255); transform-origin: 190.559px 314.185px;" id="elh0f4jir1dx" class="animable"></path><path d="M182.5,247.21a3.12,3.12,0,0,0-.19,2.73,1.65,1.65,0,0,0,1.27.8,5.13,5.13,0,0,0,2.21-.39c-.5.93-1.07,2.19-.88,2.82.33,1.06,2.06,1.24,2.79,1.27H188c1,0,2.42-.18,2.69-.86a4.33,4.33,0,0,0-.17-2.19,2.33,2.33,0,0,0,2.49.43,3.09,3.09,0,0,0,1.74-2.16,2.73,2.73,0,0,0-.33-2.23c-.54-.67-2.17-.77-3.18-.77a5,5,0,0,0,.84-2.5c0-.67-.54-1.26-1.47-1.6-1.22-.45-2.89-.42-3.6.4a3.11,3.11,0,0,0-.45,2.89l-.15.2C185.62,245.83,183.27,245.35,182.5,247.21Zm7.72.67a1.69,1.69,0,1,1-1.69-1.69A1.69,1.69,0,0,1,190.22,247.88ZM183.69,250a.92.92,0,0,1-.74-.43,2.59,2.59,0,0,1,.23-2.09c.59-1.41,2.74-.82,3.18-.68a2.39,2.39,0,0,0,.16,2.44h0A6.55,6.55,0,0,1,183.69,250Zm6.33,3.3a4.74,4.74,0,0,1-3,.33c-.79-.12-1.32-.38-1.41-.69s.6-2,1.35-3.17a.08.08,0,0,0,0,0,2.37,2.37,0,0,0,2.4.41A8.12,8.12,0,0,1,190,253.31Zm3.84-5.41a2,2,0,0,1,.18,1.6,2.41,2.41,0,0,1-1.32,1.66c-1.3.59-2.47-1.07-2.68-1.39a2.37,2.37,0,0,0,.87-2.36C192,247.38,193.54,247.5,193.86,247.9Zm-6.28-4.45c.42-.49,1.72-.59,2.78-.19.62.23,1,.57,1,.91a4.58,4.58,0,0,1-.85,2.3,2.44,2.44,0,0,0-2-1,2.39,2.39,0,0,0-1.21.34h0A2.53,2.53,0,0,1,187.58,243.45Z" style="fill: rgb(255, 255, 255); transform-origin: 188.469px 248.355px;" id="elk4yb6empsu" class="animable"></path><path d="M146.28,325c.33,1.06,2.06,1.25,2.79,1.27h.31c1,0,2.42-.18,2.69-.85a4.33,4.33,0,0,0-.17-2.19,2.34,2.34,0,0,0,2.49.42,3.1,3.1,0,0,0,1.74-2.15,2.76,2.76,0,0,0-.33-2.24c-.54-.67-2.18-.76-3.18-.77a5,5,0,0,0,.84-2.5c0-.67-.54-1.25-1.48-1.6-1.21-.45-2.89-.42-3.6.41a3.08,3.08,0,0,0-.44,2.88l-.15.2c-.8-.22-3.15-.7-3.92,1.16a3.17,3.17,0,0,0-.2,2.73,1.68,1.68,0,0,0,1.28.8,5.14,5.14,0,0,0,2.21-.4C146.65,323.07,146.08,324.32,146.28,325Zm8.94-5.26a2,2,0,0,1,.19,1.6,2.39,2.39,0,0,1-1.33,1.65c-1.29.59-2.46-1.06-2.67-1.39a2.45,2.45,0,0,0,.87-2.35C153.39,319.17,154.9,319.29,155.22,319.69Zm-7,0a1.7,1.7,0,1,1,1.69,1.69A1.69,1.69,0,0,1,148.2,319.67Zm.74-4.43c.43-.5,1.73-.59,2.79-.2.62.23,1,.57,1,.91a4.53,4.53,0,0,1-.86,2.31,2.4,2.4,0,0,0-2-1,2.45,2.45,0,0,0-1.2.33h0A2.48,2.48,0,0,1,148.94,315.24Zm-3.88,6.56a1,1,0,0,1-.75-.44,2.62,2.62,0,0,1,.24-2.08c.59-1.41,2.74-.82,3.18-.68a2.38,2.38,0,0,0,.16,2.43h0A6.47,6.47,0,0,1,145.06,321.8Zm3.28-.24s0,0,0,0a2.39,2.39,0,0,0,1.54.57,2.43,2.43,0,0,0,.86-.16,8.34,8.34,0,0,1,.64,3.16,4.76,4.76,0,0,1-3,.33c-.78-.12-1.31-.37-1.41-.68S147.59,322.78,148.34,321.56Z" style="fill: rgb(255, 255, 255); transform-origin: 149.843px 320.185px;" id="elgcyres2xmc" class="animable"></path><path d="M172.46,298s19.86,22.41,27.12,27.41,10,6.81,10,6.81V319.45Z" style="fill: rgb(38, 50, 56); stroke: rgb(38, 50, 56); stroke-linecap: round; stroke-linejoin: round; transform-origin: 191.02px 315.11px;" id="elqyd4nvqyusi" class="animable"></path><path d="M208.59,351.91s3.12-77.61,2.68-84.3.89-13.82-2.68-18.73-25.42-11.59-29.44-12-23.19-1.34-29,.89c0,0-7.65,2.5-14.32,5.25l-.75,1.52-.54,34.71v72.07c8.5,4.6,34.87,15.56,74.43,1.61Z" style="fill: none; stroke: rgb(38, 50, 56); stroke-miterlimit: 10; transform-origin: 172.926px 298.053px;" id="el66fawejpd5x" class="animable"></path><path d="M153.73,246.65s0,19.18,12,20.07,14.28-27.65,14.28-27.65l-27.66,3.12Z" style="fill: rgb(255, 255, 255); stroke: rgb(38, 50, 56); stroke-linecap: round; stroke-linejoin: round; transform-origin: 166.18px 252.905px;" id="eltei1amhnzh" class="animable"></path><path d="M152.39,242.19l1.34,4.46a38.16,38.16,0,0,0,1.16,8.45,25.29,25.29,0,0,0,3,1.24c7.78,2.55,15.91-1.77,20.94-9a80.08,80.08,0,0,0,1.21-8.28Z" style="fill: rgb(38, 50, 56); stroke: rgb(38, 50, 56); stroke-linecap: round; stroke-linejoin: round; transform-origin: 166.215px 248.069px;" id="elay7o6bjbby" class="animable"></path><path d="M203.24,248.88s-5.35,4.46-5.35,13.83,1.78,32.11,2.67,37.91,8.92,23.19,16.95,18.73,10.26-7.58,8.47-21.41-4-30.77-7.58-39.25S208.14,245.76,203.24,248.88Z" style="fill: rgb(255, 255, 255); stroke: rgb(38, 50, 56); stroke-linecap: round; stroke-linejoin: round; transform-origin: 212.225px 283.978px;" id="el47g59zma46i" class="animable"></path><path d="M51.92,410s-6,8.67-4,12.67,12,3.33,18,1.33,25.33-9.33,25.33-9.33l-4-4s-10,6-18,6.66-9.33,3.34-12,2.67,2-8,2-8Z" style="fill: rgb(38, 50, 56); stroke: rgb(38, 50, 56); stroke-linecap: round; stroke-linejoin: round; transform-origin: 69.3809px 417.796px;" id="el9m0sltp3fnp" class="animable"></path><path d="M77.92,343.33s-24,49.34-29.33,56.67,4.66,18,12.66,18,34-58,37.34-60.67S96.59,335.33,77.92,343.33Z" style="fill: rgb(33, 241, 90); stroke: rgb(38, 50, 56); stroke-linecap: round; stroke-linejoin: round; transform-origin: 73.3072px 379.702px;" id="el9f3wpexdr4" class="animable"></path><path d="M158.88,308.52s11.74,5.66,16.53,13.49,10,32.62,11.31,47.85,7,28.27,8.7,37.41-4.79,15.66-12.62,20.88-11.31,5.65-15.22,6.52-11.75-7.39-10.88-19.14,3-65.83.87-80-3.48-29.14,1.31-27" style="fill: rgb(255, 255, 255); stroke: rgb(38, 50, 56); stroke-linecap: round; stroke-linejoin: round; transform-origin: 175.661px 371.529px;" id="elso0c2sx3y38" class="animable"></path><path d="M115.25,299s-21,7-29,17-7.5,16-5.5,30,2.5,36-1.5,51,1,30.5,9,34.5,45.5,10.5,64.5,6.5,28.5-4.5,30.5-19.5-5.5-44.5-6-68-13-43.5-30.5-50.5S115.25,299,115.25,299Z" style="fill: rgb(33, 241, 90); stroke: rgb(38, 50, 56); stroke-linecap: round; stroke-linejoin: round; transform-origin: 130.715px 367.93px;" id="eli6x84je0o6b" class="animable"></path><path d="M110.59,299s-21,7-29,17-7.5,16-5.5,30,2.5,36-1.5,51,1,30.5,9,34.5,45.5,10.5,64.5,6.5,28.5-4.5,30.5-19.5-5.5-44.5-6-68-13-43.5-30.5-50.5S110.59,299,110.59,299Z" style="fill: rgb(255, 255, 255); stroke: rgb(38, 50, 56); stroke-linecap: round; stroke-linejoin: round; transform-origin: 126.055px 367.93px;" id="elkmyakarqz4b" class="animable"></path><path d="M148.33,303.17a39.78,39.78,0,0,0-6.24-3.17c-17.5-7-31.5-1-31.5-1l-1.29.45a11.81,11.81,0,0,0-1.71,4.05c-1,4.5,1.5,13,1.5,13l36.5,5s-2.5-7.5,0-13A55.49,55.49,0,0,1,148.33,303.17Z" style="fill: rgb(33, 241, 90); stroke: rgb(38, 50, 56); stroke-linecap: round; stroke-linejoin: round; transform-origin: 127.842px 309.053px;" id="elop55tztx4b" class="animable"></path><polygon points="75.24 248.44 79.63 246.07 134.1 234.26 133.22 235.5 75.24 248.44" style="fill: rgb(255, 255, 255); stroke: rgb(38, 50, 56); stroke-linecap: round; stroke-linejoin: round; transform-origin: 104.67px 241.35px;" id="elof7ma5491u8" class="animable"></polygon><polygon points="134.1 234.26 156.02 304.11 154.98 304.73 133.22 235.5 134.1 234.26" style="fill: rgb(38, 50, 56); stroke: rgb(38, 50, 56); stroke-linecap: round; stroke-linejoin: round; transform-origin: 144.62px 269.495px;" id="ele6ruhqdv9sf" class="animable"></polygon><polygon points="75.24 248.44 97.98 319.35 155.07 304.63 133.22 235.5 75.24 248.44" style="fill: rgb(255, 255, 255); stroke: rgb(38, 50, 56); stroke-linecap: round; stroke-linejoin: round; transform-origin: 115.155px 277.425px;" id="elpifuenh3vcc" class="animable"></polygon><path d="M90.24,254.26c1.51-.32,2.56.43,3,2.05l.1.31-1.47.31-.13-.42c-.21-.72-.57-.93-1.07-.82s-.69.43-.48,1.15c.61,2.07,3.76,1.82,4.61,4.7.48,1.61,0,2.7-1.57,3s-2.59-.43-3.06-2L90,261.9l1.46-.31.22.72c.21.72.6.91,1.09.81s.73-.43.52-1.15c-.61-2.07-3.76-1.82-4.61-4.7C88.22,255.66,88.73,254.57,90.24,254.26Z" style="fill: rgb(33, 241, 90); transform-origin: 91.7474px 259.397px;" id="el7bnw6mmtc79" class="animable"></path><path d="M98.8,255.22l.39,1.31c.47,1.61,0,2.65-1.58,3l-.74.16L98,263.44l-1.56.33-3-10.07,2.29-.48C97.31,252.89,98.33,253.61,98.8,255.22Zm-3.36-.41,1,3.41.73-.15c.5-.11.7-.4.48-1.11l-.44-1.52c-.21-.71-.55-.89-1-.78Z" style="fill: rgb(33, 241, 90); transform-origin: 96.4018px 258.456px;" id="elmcv9q27llt" class="animable"></path><path d="M106.67,261.61l-1.56.33-.81-1.77-1.91.4.27,1.89-1.42.3-1.39-10.41,2.27-.47Zm-4.48-2.44,1.49-.32-2.25-4.93Z" style="fill: rgb(33, 241, 90); transform-origin: 103.26px 257.32px;" id="el46q2v0897dy" class="animable"></path><path d="M106.63,253.88l2.15,7.29-1.4.3-3-10.08,2-.41,3.37,5.7-1.77-6,1.38-.29,3,10.07-1.6.33Z" style="fill: rgb(33, 241, 90); transform-origin: 108.37px 255.93px;" id="elmhlz946vqlc" class="animable"></path><path d="M110.46,250.12l1.55-.33,3,10.08-1.55.32Z" style="fill: rgb(33, 241, 90); transform-origin: 112.735px 254.99px;" id="elbjd1ic8afgu" class="animable"></path><path d="M115.2,249c1.51-.32,2.56.44,3,2.05l.1.32-1.47.31-.13-.42c-.21-.72-.57-.93-1.07-.83s-.69.44-.48,1.16c.61,2.07,3.76,1.82,4.61,4.7.48,1.61,0,2.7-1.57,3s-2.59-.44-3.06-2.05l-.19-.62,1.47-.31.22.72c.21.72.6.92,1.09.81s.73-.43.52-1.15c-.61-2.07-3.77-1.82-4.61-4.69C113.18,250.41,113.69,249.32,115.2,249Z" style="fill: rgb(33, 241, 90); transform-origin: 116.705px 254.142px;" id="elrhq9iz35h1o" class="animable"></path><path d="M123,258.19l-1.56.33-3-10.08,1.56-.32,1.27,4.31,1.77-.37-1.28-4.31,1.58-.34,3,10.07-1.58.34-1.27-4.32-1.77.37Z" style="fill: rgb(33, 241, 90); transform-origin: 122.39px 252.965px;" id="elljbb3snuveb" class="animable"></path><path d="M215.72,298.78c-2.94-1.4-9.76-4.13-22.29-6.64-14.41-2.88-28.23-11.28-33-14.41L150,264.8l-8.48-3.91L132,260a1.18,1.18,0,0,0-.32,2.34l7.84,1.46,4.24,3.58-2,1.31-15-2.41a.91.91,0,0,0-.94.81l-.07.62A1.27,1.27,0,0,0,127,269L140,272.24l-14.09.16a1.31,1.31,0,0,0,.16,2.62l12.71.35-5.49,1.5-5.54,4.9a1.26,1.26,0,0,0,1.52,1.85,15.46,15.46,0,0,0,1.62-.79l5.34-3h5.54a37,37,0,0,0,6.2,4.57c2.61,1.3,9.3,2.41,9.3,2.41S185,310,195.66,316.23s27.65,16.5,29.43,11.15c1.32-4,1.27-15.36,1-20.88" style="fill: rgb(255, 255, 255); stroke: rgb(38, 50, 56); stroke-linecap: round; stroke-linejoin: round; transform-origin: 175.462px 294.432px;" id="elsk63m9e1rkp" class="animable"></path><path d="M80.48,263.39s-2.93.8-1.86,3.21,7.74,7.2,8.54,5.07S83.42,264.46,80.48,263.39Z" style="fill: rgb(255, 255, 255); stroke: rgb(38, 50, 56); stroke-linecap: round; stroke-linejoin: round; transform-origin: 82.819px 267.796px;" id="eltzfabx5aii" class="animable"></path><path d="M79.68,268.47s-2.13,3.2-.53,5.07,7.74,4.27,8.54,2.67-1.87-3.47-3.74-4.81S79.68,268.47,79.68,268.47Z" style="fill: rgb(255, 255, 255); stroke: rgb(38, 50, 56); stroke-linecap: round; stroke-linejoin: round; transform-origin: 83.195px 272.602px;" id="elxlj26wfgndr" class="animable"></path><path d="M80.22,274.61s-1.34,2.93.53,4.27,7.48,2.13,7.48.26-2.14-2.67-2.14-2.67Z" style="fill: rgb(255, 255, 255); stroke: rgb(38, 50, 56); stroke-linecap: round; stroke-linejoin: round; transform-origin: 83.9926px 277.427px;" id="el7g4ec0di1vb" class="animable"></path><path d="M82.35,279.68a5,5,0,0,0,2.14,3.47c1.87,1.07,5.07-.54,4.54-1.6s-3.21-1.07-3.21-1.07Z" style="fill: rgb(255, 255, 255); stroke: rgb(38, 50, 56); stroke-linecap: round; stroke-linejoin: round; transform-origin: 85.7192px 281.591px;" id="elsdnnlmh81c" class="animable"></path><path d="M167.59,398.17s-4.5-53.5-9-66.5-40-21-56.5-15-24.5,13-21.5,30-5.5,53.5,2.5,65.5,26,16.5,53.5,15S167.09,415.17,167.59,398.17Z" style="fill: rgb(33, 241, 90); stroke: rgb(38, 50, 56); stroke-linecap: round; stroke-linejoin: round; transform-origin: 123.571px 371.045px;" id="elagxoiqrr7yh" class="animable"></path><path d="M165.59,393.5s-4.5-53.5-9-66.5-40-21-56.5-15-24.5,13-21.5,30-5.5,53.5,2.5,65.5,26,16.5,53.5,15S165.09,410.5,165.59,393.5Z" style="fill: rgb(255, 255, 255); stroke: rgb(38, 50, 56); stroke-linecap: round; stroke-linejoin: round; transform-origin: 121.571px 366.375px;" id="elwzpwele67wk" class="animable"></path><path d="M142.59,320.5c.26-2.06.53-3.85.79-5.42-12.61-4.94-29.89-6.75-40.39-3.37a28.65,28.65,0,0,0-1.9,11.29c0,10.5.5,22,.5,22l43.5,3.5S141.09,332,142.59,320.5Z" style="fill: rgb(33, 241, 90); stroke: rgb(38, 50, 56); stroke-linecap: round; stroke-linejoin: round; transform-origin: 123.082px 329.24px;" id="ele0j08h227kb" class="animable"></path><path d="M179.52,189c-.68-.57-1.39-1.13-2.11-1.67-11.14-8.33-28.15-9.65-36.64,6.85a68.35,68.35,0,0,0-7.68,31.62,90.19,90.19,0,0,1,6.19,7.32c2.58,3.24,8.16,15.09,19.91,18.93,12.46,4.08,25.84-9.44,25.9-24.35,0-8.86-.16-11.33-3-19.66A61.33,61.33,0,0,1,179.52,189Z" style="fill: rgb(255, 255, 255); stroke: rgb(38, 50, 56); stroke-linecap: round; stroke-linejoin: round; transform-origin: 159.09px 217.057px;" id="el0j6rct92wukw" class="animable"></path><path d="M152.59,223.94s1.51,4.74.58,8,3.39,5.4,6.31,3.68" style="fill: none; stroke: rgb(38, 50, 56); stroke-linecap: round; stroke-linejoin: round; transform-origin: 156.035px 230.085px;" id="elmxq4qmmhht" class="animable"></path><path d="M157.78,239.88s5.86,3.74,11.2-3.68" style="fill: none; stroke: rgb(38, 50, 56); stroke-linecap: round; stroke-linejoin: round; transform-origin: 163.38px 238.511px;" id="elsdj02tjto1e" class="animable"></path><path d="M164.49,219c.61,1.61.55,3.13-.14,3.39s-1.75-.83-2.36-2.43-.55-3.13.14-3.39S163.87,217.35,164.49,219Z" style="fill: rgb(38, 50, 56); transform-origin: 163.24px 219.479px;" id="elcygbvdbzj7p" class="animable"></path><path d="M146.39,223.61c.61,1.6.55,3.12-.14,3.38s-1.74-.82-2.36-2.43-.55-3.13.14-3.39S145.78,222,146.39,223.61Z" style="fill: rgb(38, 50, 56); transform-origin: 145.138px 224.08px;" id="eldvfrmw4cu7n" class="animable"></path><path d="M156.26,214a11.32,11.32,0,0,1,12.2-2.91" style="fill: none; stroke: rgb(38, 50, 56); stroke-linecap: round; stroke-linejoin: round; stroke-width: 2px; transform-origin: 162.36px 212.196px;" id="elzuur88kmvi" class="animable"></path><path d="M148.48,216.38s-7.74-4.39-9.76,4.4" style="fill: none; stroke: rgb(38, 50, 56); stroke-linecap: round; stroke-linejoin: round; stroke-width: 2px; transform-origin: 143.6px 218.032px;" id="ell2t7dt3ur0s" class="animable"></path><path d="M172.87,213c3.12,5.74,1.61,12.59-3.36,15.3s-11.55.24-14.67-5.5-1.62-12.6,3.36-15.3S169.75,207.26,172.87,213Z" style="fill: none; stroke: rgb(38, 50, 56); stroke-linecap: round; stroke-linejoin: round; transform-origin: 163.854px 217.902px;" id="elcq7at1krw3w" class="animable"></path><path d="M151.11,220.16c3.12,5.75,1.62,12.6-3.36,15.3s-11.55.24-14.67-5.5-1.61-12.59,3.37-15.3S148,214.42,151.11,220.16Z" style="fill: none; stroke: rgb(38, 50, 56); stroke-linecap: round; stroke-linejoin: round; transform-origin: 142.096px 225.058px;" id="elbhbfok4i2m" class="animable"></path><line x1="151.97" y1="221.41" x2="153.93" y2="221.16" style="fill: none; stroke: rgb(38, 50, 56); stroke-linecap: round; stroke-linejoin: round; transform-origin: 152.95px 221.285px;" id="elqe34b1bipd" class="animable"></line><line x1="172.87" y1="213" x2="183.98" y2="204.18" style="fill: rgb(255, 255, 255); stroke: rgb(38, 50, 56); stroke-linecap: round; stroke-linejoin: round; transform-origin: 178.425px 208.59px;" id="elfvfvm20jnxm" class="animable"></line><path d="M165.53,160.6S181,131,184.89,134.45s12,36,6,39.56-25-8.16-25-8.16-3.46,4.6-7.3,6.39-9.14-12.78-9.63-20.71S161.2,149.08,165.53,160.6Z" style="fill: rgb(255, 255, 255); stroke: rgb(38, 50, 56); stroke-linecap: round; stroke-linejoin: round; transform-origin: 170.989px 154.427px;" id="elcydm8im5xmq" class="animable"></path><path d="M189.67,176.59a37.44,37.44,0,0,0-33.38-22.39c-6.07-.21-12.53.45-17.85,3-14.65,7.06-21.6,27.49-21.6,27.49s-12.37,0-15.13,9.52,4.29,8.62,4.29,8.62-7.36,14.11,2,18.5,12.16-4.75,12.16-4.75,1.77,16.92,14,9.77,9.83-26,15.6-33.91,12.55-1.61,12.55-1.61-.06,12,5.4,14.07a52.34,52.34,0,0,1,9.83,5.12s1.2-6.14,5.13-6.64,5.64.48,5.64.48,4.93-8.21,3.37-20.38A26.22,26.22,0,0,0,189.67,176.59Z" style="fill: rgb(38, 50, 56); stroke: rgb(38, 50, 56); stroke-linecap: round; stroke-linejoin: round; transform-origin: 146.527px 191.138px;" id="elhgknv8drk6" class="animable"></path><path d="M179.69,189.47c6.32-2.28,9.19-7.39,10.5-11.56-.16-.44-.33-.88-.52-1.32a.89.89,0,0,0-.08-.17c-1.06,4.11-3.69,9.75-10.24,12.11-10.78,3.89-15.16.36-15.22.31a.5.5,0,1,0-.65.75C163.67,189.76,168.26,193.6,179.69,189.47Z" style="fill: rgb(146, 152, 155); transform-origin: 176.724px 183.898px;" id="eloq4irzsi9jc" class="animable"></path><path d="M134.66,208.32c-.93-1.8-2.81-3.76-6.55-2.87a8.55,8.55,0,0,0-5.91,4c-1.82,3.32-.5,7.17-.45,7.33a.5.5,0,1,0,1-.33s-1.22-3.6.38-6.52a7.58,7.58,0,0,1,5.26-3.54,4.38,4.38,0,0,1,5.44,2.36c2,3.85,1,11.18-1.17,13.06-.59.53-1.13.69-1.6.48-1-.43-1.63-2.26-1.67-3.72,0-.89.19-1.4.4-1.5a.52.52,0,0,0,.22-.68.51.51,0,0,0-.67-.22c-.64.32-1,1.18-.95,2.43,0,1.77.85,4,2.27,4.61a2,2,0,0,0,.81.17,2.82,2.82,0,0,0,1.85-.81C135.76,220.42,136.9,212.67,134.66,208.32Z" style="fill: rgb(146, 152, 155); transform-origin: 128.552px 214.304px;" id="elfktp2tvhv1t" class="animable"></path><path d="M161.23,185.86h.05a.49.49,0,0,0,.45-.54c0-.19-1.76-18.69,12.19-23.56a.5.5,0,0,0-.33-.95c-14.69,5.14-12.88,24.41-12.86,24.61A.51.51,0,0,0,161.23,185.86Z" style="fill: rgb(146, 152, 155); transform-origin: 167.453px 173.321px;" id="el1h4itb5cbpv" class="animable"></path><path d="M192,188.26c0-.64,0-1.3-.06-2-3.56,6.7-9.57,14.41-18.74,15.72a.5.5,0,0,0,.07,1h.07C182.2,201.73,188.21,194.77,192,188.26Z" style="fill: rgb(146, 152, 155); transform-origin: 182.367px 194.621px;" id="el58rlkrwiqvq" class="animable"></path><path d="M178.46,212.88s1.16-12.16,7.8-13.2,8.12,4.38,6.69,12.89-8.95,17.81-10.84,9.14" style="fill: rgb(255, 255, 255); stroke: rgb(38, 50, 56); stroke-linecap: round; stroke-linejoin: round; transform-origin: 185.954px 212.366px;" id="elgszczlsekjp" class="animable"></path></g><defs>     <filter id="active" height="200%">         <feMorphology in="SourceAlpha" result="DILATED" operator="dilate" radius="2"></feMorphology>                <feFlood flood-color="#32DFEC" flood-opacity="1" result="PINK"></feFlood>        <feComposite in="PINK" in2="DILATED" operator="in" result="OUTLINE"></feComposite>        <feMerge>            <feMergeNode in="OUTLINE"></feMergeNode>            <feMergeNode in="SourceGraphic"></feMergeNode>        </feMerge>    </filter>    <filter id="hover" height="200%">        <feMorphology in="SourceAlpha" result="DILATED" operator="dilate" radius="2"></feMorphology>                <feFlood flood-color="#ff0000" flood-opacity="0.5" result="PINK"></feFlood>        <feComposite in="PINK" in2="DILATED" operator="in" result="OUTLINE"></feComposite>        <feMerge>            <feMergeNode in="OUTLINE"></feMergeNode>            <feMergeNode in="SourceGraphic"></feMergeNode>        </feMerge>            <feColorMatrix type="matrix" values="0   0   0   0   0                0   1   0   0   0                0   0   0   0   0                0   0   0   1   0 "></feColorMatrix>    </filter></defs></svg>